<?xml version="1.0" encoding="UTF-8"?>
<svg xmlns="http://www.w3.org/2000/svg" viewBox="0 0 700 700">
  <defs>
    <style>
      .cls-1 {
        fill: #f0a2b3;
      }

      .cls-2 {
        fill: #fad2da;
      }

      .cls-3 {
        fill: #8b4874;
      }

      .cls-4 {
        fill: #ffedf1;
      }

      .cls-5 {
        fill: #fef8ff;
      }

      .cls-6 {
        fill: #cf909a;
      }

      .cls-7 {
        fill: #ffbfcb;
      }

      .cls-8 {
        fill: #8a4773;
      }

      .cls-9 {
        fill: #fdf7fe;
      }
    </style>
  </defs>
  <g id="Bunny">
    <g id="Body">
      <path class="cls-5" d="M174.51,581.54s-21.57-23.21-36.63-14.79c-11.94,6.68-10.82,40.2-2.67,55.21,2,3.68-14.45,3.22-16.02,7.12-2.03,5.05,9.99,8.98,11.64,14.16,1.88,5.92-11.32,16.26-6.75,21.53,4.17,4.81,21.86-1.96,27.26,1.99,3.05,2.23-1,12.01,1.87,14.44,10.22,8.64,53.83-10.21,53.83-10.21l-32.52-89.44Z"/>
      <path class="cls-7" d="M247.5,418.04c-42.45,11.64-93.7,124.01-99.22,138.19-1.46,3.76,12.41-3.25,13.93,.48,4.24,10.38-8.64,48.82-5.18,64.71,.98,4.47,11.05,4.94,13.41,8.92,3.59,6.07-1.27,15.8,.89,23.72,.8,2.94,10.2,6.65,13.35,13.12,1.95,4-2.88,11.6-.39,13.05,10.01,5.87,29.15,.72,50.59,.05,27.56-.87,57.13,1.61,57.13,1.61,0,0,64.3,1.47,85.74,1.24,26.4-.27,81.17-10.94,117.58,.92,37.53,12.22,56.54-106.12,56.54-106.12,0,0-32-39.56-53.29-54.12,0,0-180.95-125-251.09-105.76Z"/>
    </g>
    <g id="Ear_move" data-name="Ear move">
      <path class="cls-4" d="M330.92,208.76S166.56,17.19,129.6,36.86c-34.69,18.46-3.21,117.58,27.27,141.75,11.7,9.27,52.99,22.6,91.42,33.62-32.74-15.96-88.33-52.08-101.41-81.33-7.81-17.47-17.58-71.49,2.01-75.81,13.51-2.98,32.77,42.21,32.77,42.21,3.48,9.12,10.92,39.21,15.76,47.76,5.84,10.33,22.22,22.62,25.25,25.47,1.82,1.71-7.8,2.31-6.84,7.23,1.43,7.35,17.62,1,17.62,5.36,0,25.65,44.57,27.33,39.6,36.03,27.82,7.58,49.5,12.89,49.5,12.89l8.37-23.26Z"/>
      <path class="cls-1" d="M233.45,183.1c0-4.36-16.19,1.99-17.62-5.36-.96-4.92,8.66-5.52,6.84-7.23-3.02-2.85-19.41-15.14-25.25-25.47-4.83-8.55-12.28-38.64-15.76-47.76,0,0-19.26-45.2-32.77-42.21-19.6,4.33-9.82,58.34-2.01,75.81,13.07,29.25,68.66,65.37,101.41,81.33,8.51,2.44,16.88,4.77,24.76,6.91,4.97-8.7-39.6-10.38-39.6-36.03Z"/>
    </g>
    <g id="Head">
      <g>
        <path class="cls-4" d="M468.53,161.4c19.62-24.93,69.47-132.11,33.31-151.53-19.93-10.7-17.53,14.13-48.64,36.89-32.26,23.6-74.41,64.6-84.96,83.79-11.5,20.91-18.21,92.63-18.21,92.63l24.21,29.33s13.75-18.54,36.03-30.47c17.83-9.55,44.68-11.72,48.02-20.15,1.34-3.38-2.27-11.69-.68-14.4,2.99-5.11,18.09-6.85,19.24-11.96,1.05-4.69-11.36-10.27-8.33-14.13Zm-1.99-19.42c2.73,6.09-24.12,12.74-26.84,17.36-1.34,2.27,7.32,12.12,5.41,17.02-2.96,7.58-16.2,7.01-18.39,11.83-1.2,2.65,6.2,7.4,5.62,10.22-2.88,14.03-53.69,26.66-53.69,26.66l-11.82-21.91s-1.47-41.73,4.43-54.11c17.82-37.39,116.59-123.53,120.77-118.05,4.88,6.4-34.16,83.71-34.16,83.71-.21,1.8,9.55,2.81,9.92,5,.66,3.96-12.81,8.34-13.56,13.04-.67,4.23,9.17,2.24,12.3,9.23Z"/>
        <path class="cls-1" d="M467.79,119.71c-.37-2.19-10.13-3.2-9.92-5,0,0,39.04-77.31,34.16-83.71-4.18-5.48-102.96,80.66-120.77,118.05-5.9,12.38-4.43,54.11-4.43,54.11l11.82,21.91s50.8-12.62,53.69-26.66c.58-2.83-6.82-7.58-5.62-10.22,2.19-4.82,15.43-4.25,18.39-11.83,1.91-4.9-6.74-14.74-5.41-17.02,2.72-4.62,29.57-11.27,26.84-17.36-3.13-6.99-12.98-5-12.3-9.23,.75-4.7,14.22-9.08,13.56-13.04Z"/>
      </g>
      <path class="cls-2" d="M330.51,163.56c-9.38-3.38-19.21,19.51-28.32,23.49-5.97,2.61-22.73-4.81-27.38-.98-2.26,1.86,2.42,3.87,1.69,6.61-2.16,8.1-15.01,10.37-21.88,26.94-7.28,17.56-1.98,38.51-6.54,50.47-2.22,5.82-17.55,12.58-17.12,18.75,.3,4.23,13.1,4.77,14.73,8.72,2.51,6.1-9.59,12.74-9.21,19.5,1.55,27.38,103.09,62.44,103.09,62.44,0,0,74.62-19.33,95.15-39.84,6.46-6.45,25.97-34.76,27.88-47.08,.75-4.82-7.93-13.92-7.54-17.84,.19-1.98,7.31-3.5,6.12-5.16-4.1-5.73-11.3-20.26-15.69-34.28-5.03-16.04-21.76-32.76-31.06-38.8-11.4-7.41-31.42-15.4-44.4-14.27-3.11,.27,4.87-8.5,2.48-11.52-6.92-8.7-39.56,12.41-41.58,7.6-1.44-3.43,3.55-13.34-.41-14.77Z"/>
      <path class="cls-3" d="M339,288.2c.24-3.63,10.79-7.15,14.65-7.23,4.21-.08,14.81-.37,16.15,3.39,1.58,4.43-8.02,12.97-13.36,13.8-5.03,.79-17.75-5.17-17.44-9.96Z"/>
    </g>
    <path id="Fur" class="cls-4" d="M365.87,350.82c-5.24-1.57-13.06,9.67-18.05,11.86-12.75,5.6-42.93-.13-56.78-5.67-19.45-7.78-48.41-29.48-61.62-15.83-2.72,2.81,12,8.14,11.86,12.29-.12,3.61-29.48,11.4-23.56,15.14,7.68,4.85,16.03-.85,18.63,2.86,3.76,5.35-13.11,10.55-15.2,16.65-1.82,5.32,6.35,19.85,5.13,26.48-.77,4.19-12.27,9.58-10.83,13.6,1.39,3.89,17.29,2.15,17.29,2.15l8.8,41.61,40.4,176.78,22.35,34.01s29.52,6.58,39.54,6.21c5.9-.22,18.67-5.41,24.56-5.8,8.05-.54,27.97,2.14,35.64,1.79,6.16-.28,21.8-4.71,27.86-5.84,5.93-1.11,13.56,.3,16.93-.62,7.08-1.92,12.66-16.62,10.47-22.38-1.78-4.69-15.28-8.33-15.76-13.3-.37-3.8,11.24-6.74,11.75-10.53,.32-2.37-9.2-5.33-7.16-6.75,3.56-2.49,19.85-8.59,23.68-13.49,1.83-2.34-2.13-8.72-1.62-11.61,.55-3.13,6.68-7.21,8.31-9.99,3.1-5.3,4.48-17.71,4.87-23.75,2.2-34.03,4.58-136.29,4.58-136.29,0,0,6.17-10.48,6.86-14.37,3.15-17.76-7.35-22.81-7.27-28.86,.05-3.63,7.36-.65,8.12-3.46,4.32-16.05-27.62-37.85-31.75-40.96-3.83-2.89,20.62,.82,19.71-3.71-2.62-13.09-20.69-8.05-23.43-14.06-1.82-3.98,11.55-11.28,9.37-15.1-2.06-3.61-18.71,.88-18.71,.88,0,0-21.5,29.16-31.66,35.81-10.61,6.94-37.93,18.86-48.76,16.11,0,0-1.37-10.91-4.56-11.86Z"/>
    <g id="Arms">
      <path class="cls-2" d="M232.82,526.24l-4.65-27.44s1.89-9.22,1.25-13.86c-.45-3.25-2.27-12.21-2.97-15.43-1.41-6.55,4.79-29.83,8.52-28.62,1.53,.49,1.98,12.66,6.15,14.6,2.78,1.3,7.71-5.35,12.03-4.04,4.75,1.44,4.5,14.23,8.54,16.99,2.61,1.78,9.85-2.29,12.81-1.12,4.94,1.95,11.15,9.49,9.42,14.27-1.61,4.43-13.44,9.64-11.75,14.57,1.73,5.06,14.4-1.06,18.71,.67,3.54,1.42-.2,10.25,3.52,11.19,3.41,.86,10.25-6.8,14.28-7.39,12.32-1.81,35.18,12.84,43.55,22.89,13.33,16.01,26.86,62.8,25.5,79.94-.5,6.3-15.38,14.41-22.06,15.03-7.13,.66-23.41-.59-29.18-4.97-8.33-6.32-11.15-24.43-18.62-31.64-16.67-16.1-75.07-55.64-75.07-55.64Z"/>
      <path class="cls-2" d="M462.63,448.44c1.69,4.44,.31,13.67,1.92,17.91,1.18,3.11,10.74-1.18,14.82,3.33,4.84,5.34,7.4,20.26,4.2,29.04-3.17,8.66-10.95,7.91-15.31,10.66-5.12,3.23-8.07,20.37-14.45,19.93-3.6-.25-1.29-12.04-4.8-12.85-3.21-.74-4.69,8.37-7.11,10.49-3.19,2.8-13.82,1.08-16.9,3.98-15.68,14.77-34.88,57.65-34.88,80.3,0,5.41,8.01,13.42,13.33,15.45,5.38,2.06,18.24,1.44,23.62-.61,8.84-3.38,19.69-16.1,23.96-24.14,3.56-6.7,7.72-20.55,12.67-25.67,5.46-5.65,16.19-2.77,22.9-6.62,8.4-4.83,27.55-25.99,30.06-36.69,1.4-5.98-2.19-14.33-4.67-19.75-1.3-2.84,9.46,1.28,11.39-1.22,2.76-3.57-.58-15.48-3.32-19.77-2.09-3.26-12.7-9.01-12.04-12.76,.51-2.96,11.32-.67,12.62-3.52,2.23-4.86-11.57-11.64-14.6-16.1-2.84-4.19-1.98-14.89-3.84-19.54-1.69-4.24-11.77-14.35-11.77-14.35,0,0-4.45,9.3-10.98,13.92s-17.63,6.43-16.81,8.57Z"/>
    </g>
    <g id="Feet">
      <path class="cls-6" d="M211.15,498.72c-24.34,1.15-30.65,28.09-30.34,40.47,.58,23.48,35.2,62.32,44.06,84.27,13.63,33.8,37.05,69.05,60.87,69.06,14.06,0,37.97-19.39,30.27-44.67-9.05-29.69-23.13-91.01-39.35-117.85,0,0-31.29-32.9-65.51-31.29Z"/>
      <path class="cls-6" d="M610.12,527.9c-45.3-24.95-83.72,27.94-102.95,48.04-27.11,28.34-34.83,64.56-28.33,86.3,2.32,7.75,8.74,29.19,17.21,30.29,15.81,2.05,43.24-16.63,52.68-38.74,10.82-25.33,55.47-49.21,66.78-88.88,0,0,4.18-31.74-5.38-37.01Z"/>
      <path class="cls-1" d="M238.59,584.44s-28.69-9.6-31.06,2.22c-2.72,13.54,31.89,22.29,41.62,17.83,9.2-4.22,22.6-31.48,9.69-37.34-13.77-6.25-20.25,17.29-20.25,17.29Z"/>
      <path class="cls-1" d="M571.5,594.22s-8.28-23.12-14.96-21.64c-11,2.43-13.79,38.06-4.66,44.33,8.8,6.04,41.88-9.16,39.05-19.06-2.11-7.38-19.43-3.63-19.43-3.63Z"/>
    </g>
  </g>
  <g id="Bunny_eye" data-name="Bunny eye">
    <g>
      <ellipse class="cls-5" cx="294.39" cy="270.25" rx="19.25" ry="22"/>
      <ellipse class="cls-8" cx="298.38" cy="270.91" rx="15.19" ry="21"/>
      <circle class="cls-9" cx="305.05" cy="264.99" r="3.63"/>
    </g>
    <g>
      <ellipse class="cls-5" cx="404.39" cy="256.11" rx="19.25" ry="22"/>
      <ellipse class="cls-8" cx="408.38" cy="256.77" rx="15.19" ry="21"/>
      <circle class="cls-9" cx="415.05" cy="250.85" r="3.63"/>
    </g>
  </g>
</svg>