<?xml version="1.0" encoding="UTF-8"?>
<svg xmlns="http://www.w3.org/2000/svg" viewBox="0 0 700 700">
  <defs>
    <style>
      .cls-1 {
        fill: #aeaeae;
      }

      .cls-2 {
        fill: #fdd7c3;
      }

      .cls-3 {
        fill: #8b4874;
      }

      .cls-4 {
        fill: #eaa599;
      }

      .cls-5 {
        fill: #ffafa7;
      }

      .cls-6 {
        fill: #fef8ff;
      }

      .cls-7 {
        fill: #8a4773;
      }

      .cls-8 {
        fill: #bf8392;
      }

      .cls-9 {
        fill: #fdf7fe;
      }
    </style>
  </defs>
  <g id="Griffin">
    <path id="Wing_move" data-name="Wing move" class="cls-8" d="M474.93,352.77c.5-.99,59.18-.64,64.94-16.36,7.81-21.34-22.4-76.65-22.4-83.74,0-21.62,95.44,46.98,117.57,94.64,24.14,52.01,19.71,132.3,15.37,132.84-9.07,1.14-11.25-58.04-27.76-61.47-17.91-3.71-41.42,56.01-47.09,56.01-7.16,0-1.99-43.95-12.89-51.55-14.02-9.79-74.42-5.64-74.42-5.64l-13.31-64.75Z"/>
    <g id="Extra">
      <path class="cls-1" d="M150.08,387.16s49.64-35.11,47.25-54.86c-2.66-22.05-23.03-23.04-33.16-23.3-15.53-.4-36.71-8.25-61.15,5.36-10.86,6.05-16.32,29.87-13.81,42.05,2.88,14.01,19.54,40.2,19.94,53.61,1.45,48.49-79.24,113.86-55.82,183.44,10.21,30.32,39.86,69.78,105.07,73.04,51.19,2.56,116.6-35.24,116.6-35.24l-28.06-59.71s-95.94,31.93-119.93,.77c-30.78-39.98,12.5-89.46,23.91-146.47,2.4-11.97-.84-38.69-.84-38.69Z"/>
      <path class="cls-8" d="M265.5,273.67c8.18,3.73-19.66,41.5,13.02,86.79,12.64,17.52,85.82,10.13,85.82,10.13l-41.47,63.16s-35.35-6.25-44.22-2.41c-10.92,4.72-18.21,35.43-24.73,36.64-5.33,.99-13.01-24.66-21.21-25.07-18.5-.93-35.04,63.7-39.54,62.68-10.82-2.45-8.75-98-1.93-129.7,9.21-42.77,62.43-107.61,74.25-102.22Z"/>
      <path class="cls-8" d="M309.11,147.51s-29.5-21.01-25.61-64.48c1.17-13.02,25.23-30.17,32.01-41.34,3.73-6.14,.31-26.18,7.47-26.74,11.94-.94,17.28,32.74,15.47,44.35-1.09,6.97-10.9,26.24-10.67,28.64,1.66,16.93,20.54,34.84,20.54,34.84l20.48-2.2s12.56-30.38,17.13-38.61c9.59-17.24,48.75-33.55,64.55-45.35,9.22-6.89,21.64-33.85,31.74-33.34,13.88,.7-1.33,40.43-7.3,52.98-9.35,19.68-90.91,79.59-90.91,79.59l-74.9,11.67Z"/>
    </g>
    <g id="Leg">
      <path class="cls-4" d="M306.38,403.71s-13.92,36.31-21.28,46.86c-5.9,8.47-25.47,19.47-29.33,29.04-1.3,3.21,4.02,11.86,1.15,13.8-26.52,17.99-32.19,62.19-32.19,87.4,0,5.69-11.24,15.28-9.5,20.7,.76,2.36,7.46,1.97,9.2,3.74,3.44,3.49,2.5,14.32,3.39,21.97,.89,7.64,.1,13.1-1.14,17.85-.67,2.58-2.01,5.89-1.39,8.49,.87,3.61,9.15,6.54,12.65,7.76,10.62,3.7,31.38,13.36,42.55,14.66,28.41,3.32,113.86-11.21,113.86-11.21l97.47-8.63,65.84-7.19s7.15-6.97,8.05-10.06c.54-1.88-1.29-5.86-.86-7.76,1.03-4.59,11.19-10,11.79-14.66,.38-2.95-5.23-7.3-6.33-10.06-1.72-4.34,.74-14.08,0-18.69-3.77-23.36-53.25-89.68-53.25-89.68l-210.69-94.33Z"/>
      <path class="cls-2" d="M320.21,636.56c-11.86,.77-39.84,11.67-41.36,23.46-3.35,26.1,35.98,23.6,49.33,25.31,18.78,2.4,39.54-10.19,39.29-23.54,0,0-10.02-27.64-47.26-25.23Z"/>
      <path class="cls-2" d="M522,672.26c11.84-1.01,41.05-8.6,41.07-20.49,.03-26.32-30.04-26.82-43.13-24.89-18.73,2.77-49.94,16.09-48.01,29.3,0,0,11.85,19.33,50.07,16.07Z"/>
    </g>
    <g id="Body">
      <path class="cls-2" d="M545.21,494.51c-14.07-24.03-33.47-87.63-33.47-87.63l-32.32-101.85s6.65-28.71,11.68-37c5.4-8.89,25.02-24.99,22.39-35.05-.97-3.71-11.3-6.06-11.21-10.45,.06-2.72,6.66-10.88,5.87-12.96-1.33-3.51-11.62-1.06-14.45-3.52-7.28-6.3-19.15-33.43-19.15-33.43,0,0-6.99-9.72-9.45-12.99-2.64-3.51-11.32-13.55-11.32-13.55,0,0,7.12-7.2,4.71-14.83-.97-3.07-7.51-2.52-7.49-5.74,.02-3.39,7-9.58,5.95-12.18-1.02-2.54-10.67-1.05-10.22-3.26,1.88-9.35,7.56-26.87,13.29-32.15,2.25-2.07,5.7-2.96,9.08-3.28-1.33-1.05-2.77-1.83-4.35-2.27-16.03-4.52-49.35,44.73-49.35,44.73,0,0-25.05-5.02-36.31-3.81-4.33,.46,11.15-15.51,6.82-16.05-7.61-.95-20.69,11.08-28.14,12.21-12.13,1.84-43.41-16.55-48.8-5.36-2.78,5.76,23.1,15.81,16.71,15.39-12.39-.81-52.12,10.38-40.45,16.38,4.89,2.51,16.88,11.71,16.88,11.71,0,0-27.35-1.34-35.6-4.36-5.71-2.09-18.2-9.05-22.88-8.19-9.08,1.65-10.78,20.01-12.01,30.45,3.97-6.23,8.06-11.53,10.67-11.82,16.16-1.79,23.25,27.34,25.41,32.99,1.02,2.66-9.32,2.99-10.2,5.09-2.14,5.09,11.84,17.01,11.84,17.01l-1.18,19.51-.6,.12c.53,2.41,4.92,22.07,10.98,39.87,1.34,3.94-4.92,12.68-3.01,16.38,1.43,2.78,9,4.2,10.36,7.02,3.09,6.39-1.75,23.33,.66,28.4,2.79,5.84,26.06,9.04,26.06,9.04l36.3,44.72s-37.58,39.7-37.58,58.34c0,29.66-21.87,50.07-21.63,65.34,.07,4.49,7.38,11.86,6.5,16.27-1.18,5.93-13.11,12.38-10.45,17.81,1.98,4.06,17.32,7.78,16.13,12.13-1.07,3.93,5.16,56.05,42.12,98.37,12.56,14.39,24.12,45.91,68.97,42.81,0,0,.25,0,.26,0,7.36-.51,16.66-3.72,14.56-20.18-.41-3.23-7.36-9.68-7.36-12.54,0-41.25,3.73-115.82,3.73-115.82,0,0,15.02,85.91,10.77,115.42-.81,5.64-6.19,16.46-5.48,22.11,.4,3.16,4.97,9.22,8.1,9.83,21.29,4.16,38.39,2.56,56.24-30.94,14.96-28.07,18.73-96.12,38.01-121.42,2.55-3.34,13.36-8.6,11.95-11.82-3.17-7.24-8.65-14.28-7.06-18.86,.94-2.72,9.95-3.65,8.5-6.13Z"/>
      <path class="cls-5" d="M269.36,208.74s-13.98-11.92-11.84-17.01c.88-2.09,11.21-2.42,10.2-5.09-2.16-5.65-9.25-34.78-25.41-32.99-2.61,.29-6.7,5.58-10.67,11.82,0,.01,0,.03,0,.04-1.29,11.02,7.26,36.18,15.84,43.22,2.15,1.76,8.22,2.25,10.36,4.01,1.75,1.44,2.18,9.29,4.16,12.77,1.98,3.48,5.53,2.61,5.53,2.61,0,0,.02,.08,.05,.25l.6-.12,1.18-19.51Z"/>
      <path class="cls-5" d="M446.74,110.08c-.44,2.21,9.2,.72,10.22,3.26,1.05,2.6-5.93,8.79-5.95,12.18-.02,3.22,6.52,2.67,7.49,5.74,2.41,7.64-4.71,14.83-4.71,14.83,0,0,8.67,10.04,11.32,13.55,2.46,3.27,9.45,12.99,9.45,12.99,0,0,8.59-3.77,8.76-6.49,.14-2.27-5.45-5.21-5.19-7.46,.41-3.58,8.97-8.12,8.44-11.68-2.45-16.39-3.01-60.91-17.46-72.34-3.38,.32-6.83,1.21-9.08,3.28-5.73,5.28-11.41,22.8-13.29,32.15Z"/>
    </g>
    <path class="cls-3" d="M337.87,252.97c-.23-5.69,16.44-14.57,20.3-10.37,2.94,3.2-1,15.91-5.29,16.55-4.01,.6-14.84-2.12-15-6.18Z"/>
    <path id="Fur" class="cls-6" d="M400.63,336.31c-3.57-3.57-10.5-7.17-10.99-15.14-.14-2.24,18.95,12.18,26.21,12.66,20.26,1.34,68.32-43.88,68.32-43.88l22.38,7.95s-8.83,8.86-7.36,12.07,12.37,2.11,13.25,5.6c.97,3.83-6.8,7.38-5.57,11.14,2.11,6.41,17.59,12.72,20.29,18.9,1.86,4.26-1.61,13.93-1.18,18.55,.37,3.93,2.48,9.72,4.14,15.24,.97,3.23-8.6,.14-9.74,3.32-1.65,4.61,5.38,15.59,2.36,19.44-1.21,1.54-8.81,1.33-7.36,2.65,5.61,5.13,8.53,17.63,7.31,24.28-.87,4.76-10.25,14.89-10.25,14.89,0,0,4.13,9.96,1.77,11.78-1.81,1.39-6.6-2.86-8.83-2.36-5.24,1.18-8.34,12.83-14.14,16.2-3.45,2,3.25,12.33,1.47,15.9-3.58,7.21-21.36,13.31-24.74,20.61-2.22,4.81,.21,19.65-5.01,20.61-2.41,.45-5.07-7.35-7.36-6.48-8.02,3.04-3.76,30.01-12.07,32.1-2.33,.59-6.5-5.69-8.54-4.42s.24,8.78-2.06,9.72c-4.13,1.68-12.26-8.19-16.49-6.77-2.67,.89-5.33,8.97-7.95,7.95-3.11-1.21-.42-10.19-1.77-13.25-4.49-10.24-23.04-27.7-34.16-28.86-2.13-.22-6.4,3.44-8.25,2.36-4.74-2.79-3.87-16.63-7.66-20.61-3.12-3.29-13.24-5.69-15.31-9.72-2.76-5.35,.94-17.83-2.44-23.98-1.51-2.73-4.2-8.65-7.28-8.12s-8.3,6.63-10.68,6.36c-5.17-.58-3.19-13.99-8.16-15.49-4.17-1.26-12.58,1.52-19.38-.53-3.72-1.12,8.46-8.25,8.48-12.14,.03-5.47-6.68-15.02-6.4-20.91,.53-11.19,16.63-32.54,10.81-42.11-1.56-2.57-10.85-1.43-11.19-4.42-.62-5.47,15.6-10.75,15.27-15.84-.24-3.8-11.3-5.82-10.26-9.49,1.55-5.49,16.74-5.26,22.38-4.42,6.25,.94,13.32,7.14,24.27,7.14,16.51,0,32.58-8.11,37.25-7.96,4.15,.14,19.44,2.28,16.61-.54Z"/>
  </g>
  <g id="Layer_12_copy" data-name="Layer 12 copy">
    <g>
      <ellipse class="cls-6" cx="296.72" cy="241.86" rx="19.25" ry="22" transform="translate(-55.39 91.66) rotate(-16.08)"/>
      <ellipse class="cls-7" cx="300.74" cy="241.39" rx="15.19" ry="21" transform="translate(-55.1 92.76) rotate(-16.08)"/>
      <circle class="cls-9" cx="305.51" cy="233.85" r="3.63"/>
      <ellipse class="cls-6" cx="296.72" cy="241.86" rx="19.25" ry="22" transform="translate(-55.39 91.66) rotate(-16.08)"/>
      <ellipse class="cls-7" cx="300.74" cy="241.39" rx="15.19" ry="21" transform="translate(-55.1 92.76) rotate(-16.08)"/>
      <circle class="cls-9" cx="305.51" cy="233.85" r="3.63"/>
    </g>
    <g>
      <ellipse class="cls-6" cx="395.73" cy="208.22" rx="19.25" ry="22" transform="translate(-42.2 117.78) rotate(-16.08)"/>
      <ellipse class="cls-7" cx="399.75" cy="207.75" rx="15.19" ry="21" transform="translate(-41.91 118.87) rotate(-16.08)"/>
      <circle class="cls-9" cx="404.51" cy="200.21" r="3.63"/>
      <ellipse class="cls-6" cx="395.73" cy="208.22" rx="19.25" ry="22" transform="translate(-42.2 117.78) rotate(-16.08)"/>
      <ellipse class="cls-7" cx="399.75" cy="207.75" rx="15.19" ry="21" transform="translate(-41.91 118.87) rotate(-16.08)"/>
      <circle class="cls-9" cx="404.51" cy="200.21" r="3.63"/>
    </g>
  </g>
</svg>