<?xml version="1.0" encoding="UTF-8"?>
<svg xmlns="http://www.w3.org/2000/svg" viewBox="0 0 700 700">
  <defs>
    <style>
      .cls-1 {
        fill: #f0c7ad;
      }

      .cls-2 {
        fill: #ffafa7;
      }

      .cls-3 {
        fill: #fef8ff;
      }

      .cls-4 {
        fill: #eaaea7;
      }

      .cls-5 {
        fill: #ffebd9;
      }

      .cls-6 {
        fill: #ffd39a;
      }

      .cls-7 {
        fill: #8a4773;
      }

      .cls-8 {
        fill: #bf8392;
      }

      .cls-9 {
        fill: #fdf7fe;
      }
    </style>
  </defs>
  <g id="Bird">
    <path id="Wing_move" data-name="Wing move" class="cls-1" d="M97.97,119.73c-12.56-12.56-3.13,68.87-7.31,70.65-4.2,1.79-36.61-25.16-38.17-15.02-4.85,31.59,28.04,41.23,25.17,44.66-2.47,2.96-43.43-11.86-41.69-1.54,4.02,23.8,39.38,27.61,40.07,29.96,.84,2.86-53.62,25.76-42.05,34.81,13.7,10.72,36.98,5.05,37.59,6.61,1.2,3.09-41.35,28-32.44,34.82,9.49,7.27,33.23,5.28,34.76,7.37,2.27,3.09-18.38,28.56-10.08,33.32,10.85,6.23,30.39,.44,32.19,2.64,2.24,2.76-14.43,32.88-2.78,34.34,7.3,.91,26.63-12.28,29.38-11.13,2.15,.9-5.73,21.12,5.88,27.11,9.11,4.7,12.67-7.18,17.39-7.88,7.06-1.04-4.46,10.03,16.7,16.78,9.36,2.99,12.68-9.16,17.4-8.25,2.17,.42,1.86,14.19,12.35,16.21,8.13,1.57,14.12-10.18,15.56-10.18,2.89,0,8.64,11.75,14.68,12.51,8.1,1.02,12.34-5.88,16.69-7.17,2.63-.78,4.39,4.19,8.92,4.81,13.58,1.85,34.12,3.31,34.12,3.31l7.31-137.64s-39.61-1.64-100.74-57.62c-58.25-53.35-87.69-120.25-90.91-123.47Z"/>
    <path id="Wing" class="cls-1" d="M622.61,123.34c16.04-11.38-3.16,70.67,1.59,72.97,4.77,2.31,45.63-21.49,46.45-10.96,2.57,32.8-37.13,38.88-34.09,42.71,2.62,3.31,52.34-7.13,49.26,3.21-7.1,23.83-49.13,23.68-50.17,25.99-1.27,2.83,60.6,32.45,46.07,40.36-17.21,9.38-44.07,.92-44.93,2.44-1.71,3.02,45.92,33.33,34.75,39.27-11.9,6.33-39.66,1.58-41.68,3.54-2.99,2.9,18.82,31.26,8.57,35.17-13.4,5.11-35.84-3.04-38.18-.99-2.92,2.56,13.73,35.23-.14,35.38-8.69,.09-30.15-15.59-33.5-14.73-2.62,.68,4.65,22.22-9.62,27-11.2,3.75-14.21-8.78-19.71-10.04-8.21-1.88,4.26,10.75-21.34,15.22-11.32,1.97-14.02-10.81-19.68-10.42-2.6,.18-3.6,14.27-16.15,15.13-9.74,.67-15.61-12.02-17.32-12.18-3.4-.33-11.35,11.01-18.54,11.09-9.65,.11-13.95-7.42-18.95-9.23-3.01-1.09-5.59,3.78-10.98,3.89-16.18,.33-40.52-.53-40.52-.53l-3.88-105.56s48.32-12.05,125.88-62.2c73.92-47.8,122.71-133.62,126.82-136.53Z"/>
    <g id="Body">
      <path class="cls-4" d="M275,482.08c-8.08,21.37,16.28,66.85,25.56,87.72,4.88,10.98,8.22,35.12,19.26,39.86,41.78,17.92,61.25-89.8,61.25-89.8,0,0,8.75,49.7,17.86,63.42,5.04,7.58,27.38,27.55,36.48,27.69,15.21,.23,40.72-16.58,44.14-36.38,2.01-11.62,14.84-36.54,20.48-46.9,4.75-8.71,13.14-43.92,9.66-51.86-26.57-60.62-54.97-109.25-54.97-109.25,0,0-160.29,64.11-179.73,115.51Z"/>
      <g id="Feet">
        <path class="cls-8" d="M297.18,623.83c-4.31-.13-11.7-4.6-9.35-14.51,5.21-22.02,19.29-23.27,23.04-19.24,2.41,2.6,1.59,6.83,1.59,6.83,0,0,4.07-4.07,8.2-3.7,7.53,.67,7.84,4.85,7.84,4.85,0,0,7.99-2.62,10.35-2.59,3.36,.04,9.81,3.09,11.15,7,1.25,3.65-2.5,12.17-7.1,13.39-2.24,.59-10.59-.44-10.59-.44,0,0,2,16.39-9.89,15.17-4.71-.48-14.53-1.9-17.6-8.3,0,0-5.69,1.59-7.64,1.53Z"/>
        <path class="cls-8" d="M427.78,594.46c-6.58,0-13.51,14.71-13.43,20.93,.07,5.3-.18,19.89,7.32,19.89,3.71,0,13.09-6.98,13.09-6.98,0,0,6.19,7.18,15.93,8.01s12.71-17.77,13.36-23.72c1.27-11.65-5.46-19.04-11.56-18.4-4.2,.44-14.28,9.32-14.28,9.32,0,0-1.93-9.05-10.42-9.05Z"/>
      </g>
      <path class="cls-6" d="M294.01,375.71c-16.33,13.69-24.48,63.34-24.18,85.57,.17,12.59-.32,48.91,5.82,59.9,4.28,7.66,21.43,8.44,27.21,13.33,2.76,2.34-1.62,9.95,5.99,14.28,5.37,3.06,16.26-1.32,22.41-1.7,11.09-.69,14.17,10.84,44.47,8.96,7.44-.46,18.93-2.97,25.8-.08,2.93,1.23,8.84,8.23,12.62,8.33,7.71,.21,14.76-13.31,21.85-16.37s19.23,2.73,26.15-2.29c14.02-10.18,28.15-48.42,27.74-66.41-.66-29.44-33.03-113.08-33.03-113.08,0,0-130.98-17.15-162.85,9.56Z"/>
      <path class="cls-5" d="M309.16,280.44s-27.93-4.04-29.86,3.21c-1.03,3.85,11.74,5.55,12.88,9.36,1.33,4.42-9.23,10.71-10.6,15.12-.9,2.92,2.99,8.81,2.89,11.86-.39,11.4-27.75,22.78-20.62,40.72,1.66,4.18,11.34,.39,14.67,3.42,6.13,5.57-6.57,19.78,4.58,33.08,2.06,2.45,9.9,.01,12.7,1.55,6.49,3.54,7.64,22.08,13.81,26.13,3.91,2.56,14.24-3.48,18.59-1.79,4.98,1.93,2.52,16.43,7.02,19.3,2.64,1.68,12.41-2.83,16.49-2.05,3.41,.65,8.19,19.53,12.14,16.32,7.51-6.11,4.23-19.63,9.66-22.42,3.9-2,11.85,7.06,16.22,6.71,3.14-.25,6.09-7.6,8.99-8.82,3.16-1.32,11.69-1.64,14.99-2.57,11.31-3.2,24.66-21.74,27.68-31.85,.94-3.15-1.13-10.46,.8-13.12,2.6-3.57,13.73-2.12,16.88-5.21,4.92-4.83,.91-21.02,3.64-27.35,.89-2.06,6.49-3.58,6.87-5.8,1.12-6.43-14.71-14.12-16.19-20.47-.78-3.38,6.41-9.17,5.83-12.59-.53-3.1-13.31-6.19-10.33-7.2,3.18-1.08,12.35-5.84,12.94-9.86,1.2-8.15-24.48-20.63-25.69-20.63s-127,4.94-127,4.94Z"/>
    </g>
    <g id="Head">
      <path class="cls-6" d="M438.01,99.24c-4.33,4.61-17.89,13.91-24.06,17.93-15.98,10.42-37.83,13.74-68.46,33.71-21.38,13.94-23.33,39.5-33.4,51.14-2.87,3.32-12.48,4.84-14.58,8.5-1.76,3.05,2.89,10.74,1.56,14-2.23,5.48-12.28,.83-14.25,6.41-2.06,5.87,9.24,22.08,9.74,28.75,.31,4.11-3.85,8.21-3.17,11.82,3.19,16.96,47.54,29.08,63.94,30.91,67.39,7.52,104.8-18.2,116.95-32.25,2.16-2.5-4.77-9.17-4.41-12.45,.3-2.69,7.48-4.83,7.78-7.52,.69-6.31-7.26-7.57-9.34-10.37-5.3-7.17,3.54-18.35-3.11-35.53-2.53-6.54-11.22-17.81-16.06-24.84-1.03-1.5,5.83-.72,6.98-2.13,2.03-2.48-3.33-10.04-1.56-12.71s10.9,1.93,12.45-.78c3.2-5.59-9.31-14.6-16.6-19.71-3.75-2.63,14.86-8,13.74-12.11-2.14-7.86-23.58-3.53-32.41-1.37,0,0,13.91-37.45,8.24-31.41Z"/>
      <path class="cls-2" d="M352.52,258.94c-3.12,7.43-13.56-25.33-8.66-31.96,8.19-11.09,23.45-4.88,27.12-.33,2.89,3.58,3.75,14.54,1.27,18.02-2.74,3.84-13.23,1.34-15.77,4.62-1.6,2.06-2.72,6.72-3.95,9.66Z"/>
    </g>
  </g>
  <g id="Bird_eye" data-name="Bird eye">
    <g>
      <ellipse class="cls-3" cx="328.14" cy="210.67" rx="19.25" ry="22"/>
      <ellipse class="cls-7" cx="332.14" cy="211.33" rx="15.19" ry="21"/>
      <circle class="cls-9" cx="338.8" cy="205.41" r="3.63"/>
    </g>
    <g>
      <ellipse class="cls-3" cx="411.14" cy="219.67" rx="19.25" ry="22"/>
      <ellipse class="cls-7" cx="415.14" cy="220.33" rx="15.19" ry="21"/>
      <circle class="cls-9" cx="421.8" cy="214.41" r="3.63"/>
    </g>
  </g>
</svg>