<?xml version="1.0" encoding="UTF-8"?>
<svg xmlns="http://www.w3.org/2000/svg" viewBox="0 0 700 700">
  <defs>
    <style>
      .cls-1 {
        fill: #fff;
      }

      .cls-2 {
        fill: #637bb1;
      }

      .cls-3 {
        fill: #f1a6b4;
      }

      .cls-4 {
        fill: #f4e4e7;
      }

      .cls-5 {
        fill: #b5def1;
      }

      .cls-6 {
        fill: #8b4874;
      }

      .cls-7 {
        fill: #fef8ff;
      }

      .cls-8 {
        fill: #e18192;
      }

      .cls-9 {
        fill: #f9fafc;
      }

      .cls-10 {
        fill: #9da3e2;
      }

      .cls-11 {
        fill: #ffbfcb;
      }

      .cls-12 {
        fill: #8a4773;
      }

      .cls-13 {
        fill: #fdf7fe;
      }
    </style>
  </defs>
  <g id="Sylveon">
    <g id="Body">
      <path class="cls-3" d="M507.88,394.9c7.74,24.99,39.04,57.22,42.98,83.01,16.22,106.34-88.43,128.68-88.43,128.68l-22.3,55.97s105.14,8.13,138.46-1.26c25.42-7.17,92.26-55.38,74.49-74.91-14.01-15.4-50.65,10.17-50.08-2.37,.37-8.1,28.66-47.67,28.57-74.11-.06-17.85-14.05-68.31-41.79-91.18-33.69-27.78-86.88-39.91-81.89-23.83Z"/>
      <path class="cls-7" d="M265.51,483.09s-55.87,83.68-74.84,117.52c-9.86,17.58-14.2,65.82-.53,80.63,27.98,30.31,119.88,17.43,164.35,14.59,25.66-1.64,56.03,13.09,81.24,8.07,20.58-4.1,53.51-29.31,56.43-62.16,6.81-76.55-78.57-191.86-78.57-191.86l-148.09,33.2Z"/>
      <path class="cls-11" d="M374.02,485.4s-40.69,49.89-42.79,70.37c-1.1,10.74-.89,35.73,9.5,38.66,16.35,4.62,28.98-21.64,38.95-28.41,8.92-6.06,30.5-1,39.08-7.55,12.37-9.44,25.63-59.99,25.63-59.99l-48.84-27.32s-102.14-18.26-134.22-6.09c-31.12,11.8-35.41,53.28-27.91,72.68,7.31,18.91,65.69,55,82.61,43.82,12.83-8.48,0-61.53,0-61.53l57.99-34.65Z"/>
      <path class="cls-4" d="M260.43,424.59s-29.36,22.66-26.32,32.71c.82,2.72,8.14,2.58,10.02,5.36,5.99,8.83,2.16,35.67,11.24,41.27,1.12,.69,11.87-.55,15.79-.11,.6,.07,1.87,13.46,6.19,14.33,3.17,.64,10.56-5.21,14.62-3.58,6.92,2.78,18.1,20.07,27.15,20.98,2.69,.27,7.09-4.58,12.32-6.41s11.49-.73,12.83-2.37c5.15-6.33,7.13-22.81,15.06-24.74,3.24-.79,9.92,3.99,13.03,2.81,4.27-1.62,8.37-11.4,12.52-13.29,2.84-1.29,9.8-.39,12.27-2.3,12.07-9.34,18.7-39.82,24.5-55.9,1.41-3.91,3.39-21.9,1.84-24.77-2.26-4.2-15.82-.17-15.87-4.94-.03-3.58,10.6-5.88,10.73-9.46,.23-5.97-16.69-17.11-16.69-17.11l-141.24,47.52Z"/>
    </g>
    <g id="Ribbon_move" data-name="Ribbon move">
      <path class="cls-4" d="M594,228.38c-3.11,.71-7.73,4.29-12.02,8.17,6.27,11.22,11.44,22,11.89,30.38,.54,10.06,.83,34.69-23.7,32.61-17.96-1.52-33.73-21.86-33.73-57.28,0-26.24-19.81-50.15-34.56-55.86-15.55-6.02-64.61,16.55-64.61,16.55l5.73,23.24s32.11-.92,41.88,7.73c17.25,15.26,27.03,70.03,46.29,82.67,22.17,14.55,83.15-.39,96.85-43.25,5.71-17.87-1.02-33.44-7.98-46.74-8.45-.33-17.98-.06-26.04,1.77Z"/>
      <path class="cls-5" d="M611.52,182.56c3.36-17.07,8.56-38.05,3.67-42.31-5.95-5.17-26.42,17.19-26.42,17.19,0,0-5.83-20.69-11.78-20.69-13.07,0-19.54,32.71-18.84,49.11,0,0,1.79-7.63,3.89-8.83l49.48,5.53Z"/>
      <path class="cls-10" d="M611.07,208.63c-.83-2.17-1.43-4.26-1.73-6.26-6.38-3.6-14.95-6.86-25.12-6.86-9.51,0-16.42,3.22-21.24,6.95,1.61,3.46,3.54,7.11,5.63,10.87l17.4-9.31,25.06,4.61Z"/>
      <path class="cls-5" d="M609.34,202.37c-.13-.88-.2-1.75-.2-2.6,0-4.26,1.04-10.43,2.38-17.22l-49.48-5.53-3.89,8.83c.03,.6,.06,1.18,.1,1.73,.34,4.23,2.13,9.3,4.72,14.86,4.83-3.73,11.74-6.95,21.24-6.95,10.17,0,18.75,3.26,25.12,6.86Z"/>
      <path class="cls-11" d="M591.12,211.36c-8.58,1.03-14.6,4.58-18.77,8.52,3.19,5.51,6.54,11.14,9.63,16.68,4.29-3.88,8.91-7.47,12.02-8.17,8.06-1.84,17.59-2.1,26.04-1.77-2.31-4.43-4.65-8.6-6.57-12.53-6.61-1.94-14.95-3.61-22.35-2.72Z"/>
      <path class="cls-10" d="M586.01,204.02l-17.4,9.31c1.2,2.15,2.45,4.34,3.73,6.55,4.17-3.94,10.2-7.49,18.77-8.52,7.4-.89,15.74,.78,22.35,2.72-.91-1.87-1.73-3.69-2.4-5.45l-25.06-4.61Z"/>
    </g>
    <g id="Head">
      <g id="Ears">
        <path class="cls-3" d="M280.21,205.62S175.07,14.48,124.25,40.01c-27.93,14.03,14.3,92.76,21.83,123.09,1.77,7.12-1.8,22.85,1.72,29.29,10.16,18.61,69.84,38.35,71.44,45.7,1.33,6.08-18.95,12.58-16.77,18.41,5.15,13.72,58.21-7,58.21-7l144.9-1.99s47.85-45.2,53.95-72.03c2.1-9.26-3.1-28.31-4.44-37.71-4.87-34.1,24.88-127.18-7.97-137.56-27.76-8.77-62.85,76.22-70.75,104.24-9.87,34.99-22.06,132.59-22.06,132.59l-74.1-31.42Z"/>
        <path class="cls-2" d="M438.16,53.67c-20.96,0-58.02,125.25-56.51,129.7,2.27,6.67-5.71,16.01-5.71,16.01,0,0,10.48,4.61,10.94,7.66,.77,5.1,26.69,9.49,26.69,9.49,0,0,27-21.82,26.54-36.17-.44-13.53-8.72,4.53-7.38-22.57,1.81-36.76,12.7-104.12,5.42-104.12Z"/>
        <path class="cls-2" d="M175.65,118.03s44.41,50.02,48.83,65.01c1.42,4.83-17.11-5.24-20,2.35-1.84,4.84,10.41,10.3,16.18,12.94,2.39,1.1-3.98,9.98-6.18,8.53-16.64-10.97-44.37-34.8-54.13-50.78-4.84-7.92-10.59-36.6-10.59-36.6l25.89-1.47Z"/>
      </g>
      <g id="Ribbon">
        <path class="cls-4" d="M111.83,195.62c-8.52-19.54,18.58-42.48,38.95-54.23-2.91-7.06-6.78-15.55-9.72-18.91-5.34-6.09-13.69-9.26-20.71-10.9-15.79,11.68-33.64,26.89-39.03,48.73-2.94,11.93,4.42,47.49,20.63,58.75,13.11,9.11,45.36,21.19,60.03,22.73,29.98,3.14,49.31-9.99,49.31-9.99l-45.08-23.46s-46.37,5.65-54.38-12.73Z"/>
        <path class="cls-5" d="M163.28,103.05c4.76,7.12,9.43,16.24,13.14,24.13,12.89-10.2,26.11-26.67,28.07-38.66,3.43-20.93-16.17-44.67-27.61-41.31-3.34,.98-1.19,13.87-1.19,13.87,0,0-17.37-6.31-21.24-2.62-6.92,6.61,9.07,12.42-7.55,31.51,6.54,3.69,13.17,8.27,16.37,13.07Z"/>
        <path class="cls-10" d="M168.4,132.71c.87-.5,1.75-1.04,2.64-1.63-8.39-24.57-19.53-34.02-27.38-37.63-.52,.52-1.05,1.04-1.61,1.58-1.11,1.06-2.38,2.15-3.76,3.27,5.38,3.92,13.72,10.24,18.97,15.5s8.86,12.44,11.13,18.91Z"/>
        <path class="cls-10" d="M171.05,131.08c1.76-1.16,3.57-2.47,5.38-3.9-3.71-7.89-8.39-17.01-13.14-24.13-3.2-4.8-9.83-9.38-16.37-13.07-.97,1.11-2.05,2.27-3.24,3.47,7.85,3.6,18.99,13.05,27.38,37.63Z"/>
        <path class="cls-11" d="M141.06,122.48c2.94,3.36,6.81,11.86,9.72,18.91,3.87-2.23,7.5-4.06,10.59-5.38-3.61-6.67-7.91-14.27-10.66-17.97-3-4.04-10.17-11.72-15.51-17.3-4.33,3.29-9.47,6.86-14.85,10.85,7.02,1.64,15.37,4.81,20.71,10.9Z"/>
        <path class="cls-11" d="M168.4,132.71c-2.27-6.46-5.77-13.55-11.13-18.91s-13.59-11.58-18.97-15.5c-.98,.79-2.01,1.6-3.1,2.43,5.34,5.58,12.51,13.26,15.51,17.3,2.75,3.7,7.05,11.31,10.66,17.97,.65-.28,1.28-.53,1.87-.77,1.63-.63,3.37-1.5,5.16-2.53Z"/>
      </g>
      <g>
        <path class="cls-9" d="M450.32,340.15c-4.47-17.78-19.54-38.36-31.56-74.61-15.79-6.55-36.13-12.18-56.92-10.2-30.68,2.92-33.82,31.27-48.44,34.62-6.04,1.38-20.78-35.56-47.02-35.56-7.46,0-21.78,6.46-33.19,12.3-3.99,15.33-6.97,30.24-6.97,30.24,0,0-20.12,41.63-11.73,64.24,4.45,12,64.99,54.56,64.99,54.56l108.3-18.54s37.53-12.3,45.08-22.36c2.84-3.79,2.54-14.21,4.97-18.28,2.65-4.42,13.93-10.65,12.48-16.41Z"/>
        <path class="cls-11" d="M313.4,289.96c14.62-3.35,17.76-31.69,48.44-34.62,20.78-1.98,41.13,3.64,56.92,10.2-2.07-6.25-4.05-12.94-5.88-20.19l-11.75-19.46s-53.91-17.83-70.31-27.08c-7.45-4.21-25.56-19.83-31.13-14.26-1.92,1.93,4.18,8.23,1.66,10.76s-31.69-1.91-36.54,5.7c-1.59,2.49,3.45,8.73,2.52,11.54-2.71,8.24-19.82,17.38-24.16,24.88-3.34,5.78-6.95,17.64-9.98,29.26,11.4-5.83,25.72-12.3,33.19-12.3,26.24,0,40.98,36.94,47.02,35.56Z"/>
      </g>
    </g>
    <g id="Neck_ribbon" data-name="Neck ribbon">
      <path class="cls-9" d="M577.16,514.94c-.84-3.7-4.08-8.15-8.11-12.5-26.46,12.97-49.6,31.12-69.95,28.92-21.1-2.28-39.62-54.51-51.37-70.47-26.95-36.6-76.41-40.49-76.41-40.49l-117.98-2.29s-37,1.78-52.09,23.73c-22.77,33.15,5.99,87.52-19.75,104.54-17.03,11.26-69.47,24.76-84.16-10.22-9.04-5.62-25.82-15.48-31.69-15.1-6.44,.42-16.12,7.39-23.65,13.69,1.84,10.58,6.6,22.27,16.35,35.41,35.92,48.45,131.32,49.93,159.77,7.97,16.54-24.4,1.02-89.88,11.75-117.34,4.11-10.53,32.32-31.61,32.32-31.61l99.94,12.29s33.69,14.65,36.03,28.61c9.25,55.14,37.91,96.4,90.23,98.55,31.12,1.28,56.83-13.57,79.45-21.58,4.19-10.06,10.55-26.68,9.32-32.13Z"/>
      <path class="cls-5" d="M72.64,476.85c8.17,1.96,18.86,9.99,26.98,16.97,2.36-10.74,4.41-21.3,2.74-30.19-2.08-11.12-9.34-50.35-23.47-51.69-5.44-.51-13.63,17.1-13.63,17.1,0,0-14.07-4.61-17.17-1.62-7.04,6.81,.58,29.47,2.33,39.11,.77,4.25,.49,8.59-.33,13.1,8.79-2.33,17.68-3.96,22.55-2.79Z"/>
      <path class="cls-10" d="M62.64,491.85c12.23,.87,24.95,10.55,33.55,18.61,.63-3.79,1.45-7.65,2.3-11.52-7-3.66-17.31-8.35-27.6-10.44-5.04-1.02-13.93-1.31-22.56-1.31-.87,3.22-1.87,6.54-2.85,9.98,4.32-3.32,10.02-5.83,17.16-5.33Z"/>
      <path class="cls-10" d="M70.89,488.5c10.29,2.09,20.6,6.77,27.6,10.44,.38-1.71,.76-3.42,1.13-5.12-8.12-6.98-18.81-15.02-26.98-16.97-4.87-1.17-13.76,.46-22.55,2.79-.45,2.46-1.06,4.98-1.76,7.56,8.63,0,17.52,.28,22.56,1.31Z"/>
      <path class="cls-11" d="M97.34,536.16c-.02-.05-.05-.1-.07-.16-2.54-6.13-2.68-13.27-1.76-20.83-6.87-2.68-17.98-6.7-28.36-9.15-5.23-1.23-14.98-1.7-23.51-1.87-2.22,9.17-3.62,19.24-1.64,30.61,7.53-6.31,17.21-13.27,23.65-13.69,5.87-.38,22.66,9.48,31.69,15.1Z"/>
      <path class="cls-11" d="M62.64,491.85c-7.14-.5-12.83,2-17.16,5.33-.64,2.27-1.28,4.59-1.85,6.98,8.53,.16,18.28,.63,23.51,1.87,10.38,2.45,21.49,6.48,28.36,9.15,.19-1.55,.42-3.13,.68-4.71-8.59-8.06-21.32-17.74-33.55-18.61Z"/>
      <path class="cls-11" d="M592.25,514.07c.35-4.7-.42-12.77-1.41-20.39-7.51,2.24-14.77,5.32-21.8,8.76,4.03,4.35,7.28,8.8,8.11,12.5,1.23,5.46-5.13,22.08-9.32,32.13,6.96-2.47,13.63-4.28,20.07-4.79,1.55-7.25,3.59-18.17,4.34-28.22Z"/>
      <path class="cls-10" d="M607.77,490.3c-3.26,.31-6.48,.82-9.66,1.5,3.73,3.71,6.83,8.79,7.42,15.6,1.01,11.7-5.89,25.1-12.29,34.77,3.2,.15,6.66,.92,10.27,2.1,2.62-7.47,6.12-19.33,6.61-30.69,.23-5.3-.95-14.52-2.36-23.28Z"/>
      <path class="cls-10" d="M605.54,507.41c-.59-6.82-3.7-11.89-7.42-15.6-2.45,.53-4.88,1.16-7.28,1.87,.99,7.62,1.76,15.69,1.41,20.39-.75,10.05-2.8,20.96-4.34,28.22,1.76-.14,3.5-.18,5.22-.11,.04,0,.09,0,.13,.01,6.4-9.68,13.3-23.08,12.29-34.77Z"/>
      <path class="cls-5" d="M621.92,514.94c-.7,8.93-7.77,21.78-13.66,31.08,20.33,8.2,43.84,26.18,53.81,20.92,8.39-4.42-9.98-28.31-9.98-28.31,0,0,17.3,8.31,20.54,4.71,10.33-11.5-22.01-45.57-36.78-50.15-7.41-2.3-14.62-3.25-21.64-3.2,4.28,9.24,8.14,19.33,7.7,24.96Z"/>
      <path class="cls-5" d="M610.14,513.59c-.5,11.36-3.99,23.22-6.61,30.69,1.56,.51,3.14,1.09,4.75,1.74,5.88-9.3,12.96-22.14,13.66-31.08,.44-5.62-3.42-15.72-7.7-24.96-2.17,.02-4.32,.12-6.45,.32,1.41,8.76,2.59,17.99,2.36,23.28Z"/>
    </g>
    <g id="Ear_bow" data-name="Ear bow">
      <path class="cls-1" d="M478.8,180.64c-5.24-8.6-23.7-5.21-41.24,.52,1.88,1,3.55,2.61,4.91,4.98,6.79,11.82-28.71,53.57-41.1,51.59,0,0,0,0,0,0,4.18,10.36,9.8,20.93,15.69,22.28,12.69,2.9,31.51-11.38,45.47-29.17s23.05-39.08,16.28-50.2Z"/>
      <path class="cls-1" d="M381.24,168.91c1.89-.7,3.61-.87,5.2-.67-12.12-19.72-28.85-42.04-40.27-37.41-24.63,9.98-24.4,88.58,.07,98.95,5.33,2.26,17.42-1.05,28.13-4.91h0c-12.51-10.68-8.55-50.26,6.87-55.96Z"/>
      <path class="cls-7" d="M402.28,196.1s.47-.46,1.31-1.21c-.6,.29-1.08,.51-1.39,.67,.05,.34,.08,.55,.08,.55Z"/>
      <path class="cls-7" d="M394.34,216.84s.01,.05,.02,.09c.09-.24,.15-.38,.15-.38,0,0-.06,.11-.17,.29Z"/>
      <path class="cls-11" d="M442.47,186.15c-1.37-2.38-3.04-3.98-4.91-4.98-14.84,4.85-29.01,11.37-33.96,13.72-.84,.76-1.31,1.21-1.31,1.21,0,0-.03-.21-.08-.55-.3,.15-.47,.23-.47,.23,0,0-6.41-13.07-15.3-27.54-1.58-.2-3.31-.03-5.2,.67-15.42,5.69-19.38,45.28-6.87,55.96h0c10.64-3.83,19.92-8.2,19.92-8.2,0,0,.02,.06,.05,.18,.11-.18,.17-.29,.17-.29,0,0-.06,.14-.15,.38,.46,1.69,3.11,11.16,7,20.81,0,0,0,0,0,0,12.39,1.98,47.89-39.76,41.1-51.59Z"/>
    </g>
    <g id="Head_bow" data-name="Head bow">
      <path class="cls-1" d="M272.24,419.12c-1.36-19.89,3.95-29.96,10.96-34.85-14.89-12.03-34.06-23.47-44.91-13.95-18.41,16.17,9.98,88.14,34.2,91.86,4.96,.76,12.51-4.5,19.45-10.67-8.6-3.23-18.29-11.53-19.71-32.4Z"/>
      <path class="cls-1" d="M379.37,364.57c-13.62-10.46-32.62-.37-48.1,12.2,9.33,1.34,17.63,9.36,15.26,35.14-2.37,25.67-10.69,36.69-19.2,41.02,7.45,6.51,15.48,11.87,20.59,10.45,25.95-7.18,52.29-82.82,31.46-98.82Z"/>
      <path class="cls-11" d="M346.52,411.92c2.38-25.78-5.93-33.8-15.26-35.14-15.21,12.35-27.03,27.08-27.03,27.08,0,0-9.15-9.98-21.03-19.58-7.01,4.88-12.32,14.96-10.96,34.85,1.42,20.87,11.11,29.17,19.71,32.4,8.98-7.99,16.94-17.5,16.94-17.5,0,0,8.72,10.44,18.42,18.93,8.51-4.33,16.84-15.36,19.2-41.02Z"/>
    </g>
    <g id="Feet">
      <path class="cls-11" d="M278.06,580.34c-28.49,0-45.86,32.44-52.47,49.15s-12.51,64.71,4.22,69.69c28.6,8.51,38.12-46.3,48.12-60.35,8.4-11.8,20.3-30.39,20.3-43.87,0-17.18-15.51-14.63-20.16-14.63Z"/>
      <path class="cls-11" d="M345.3,600.8c-16.42,26.73,14.44,47.01,25.24,56.69,11.5,10.31,23.53,49.38,37.99,43.95,31.05-11.67,14.89-59.81,3.69-74.82s-50.85-51.98-66.92-25.82Z"/>
      <path class="cls-8" d="M271.2,616.12s-5.41-10.07-8.07-8.74c-4.79,2.39-1.28,19.42,3.81,21.07s21.51-12.07,16.59-14.57c-2.79-1.42-12.33,2.24-12.33,2.24Z"/>
      <path class="cls-8" d="M359.63,632.41c-.43,5.55,12.68,10.65,17.42,7.73,4.12-2.54,6.54-16.55,2.27-18.83-3.08-1.64-8.07,9.09-8.07,9.09,0,0-11.37-1.21-11.62,2Z"/>
    </g>
    <path class="cls-6" d="M301.85,330.64c2.27-3.45,16.23-2.77,16.9,1.96,.46,3.29-5.78,8.86-9.1,8.62-6.43-.47-9.4-8.14-7.8-10.58Z"/>
  </g>
  <g id="Sylv_eye" data-name="Sylv eye">
    <g>
      <ellipse class="cls-7" cx="260.52" cy="315.8" rx="19.25" ry="22"/>
      <ellipse class="cls-12" cx="264.52" cy="316.46" rx="15.19" ry="21"/>
      <circle class="cls-13" cx="271.18" cy="310.54" r="3.63"/>
      <ellipse class="cls-1" cx="260.52" cy="315.8" rx="19.25" ry="22"/>
      <ellipse class="cls-12" cx="264.52" cy="316.46" rx="15.19" ry="21"/>
      <circle class="cls-13" cx="271.18" cy="310.54" r="3.63"/>
    </g>
    <g>
      <ellipse class="cls-7" cx="357.84" cy="310.3" rx="19.25" ry="22"/>
      <ellipse class="cls-12" cx="361.84" cy="310.96" rx="15.19" ry="21"/>
      <circle class="cls-13" cx="368.5" cy="305.04" r="3.63"/>
      <ellipse class="cls-1" cx="357.84" cy="310.3" rx="19.25" ry="22"/>
      <ellipse class="cls-12" cx="361.84" cy="310.96" rx="15.19" ry="21"/>
      <circle class="cls-13" cx="368.5" cy="305.04" r="3.63"/>
    </g>
  </g>
</svg>