<?xml version="1.0" encoding="utf-8"?>
<!-- Generator: Adobe Illustrator 27.2.0, SVG Export Plug-In . SVG Version: 6.00 Build 0)  -->
<svg version="1.1" id="Layer_1" xmlns="http://www.w3.org/2000/svg" xmlns:xlink="http://www.w3.org/1999/xlink" x="0px" y="0px"
	 viewBox="0 0 100 100" style="enable-background:new 0 0 100 100;" xml:space="preserve">
<style type="text/css">
	.st0{fill:#49444A;}
	.st1{fill:#F2D25D;}
	.st2{fill:none;}
	.st3{fill:#FAAB65;}
	.st4{fill:#FEE693;}
	.st5{fill:#817062;}
	.st6{fill:#504747;}
	.st7{fill:#F49BC0;}
	.st8{fill:#DE924F;}
</style>
<circle class="st0" cx="50.02" cy="50.05" r="50"/>
<g>
	<g>
		<g>
			<path class="st1" d="M31.09,37.71c-0.86-2.28-1.75-5.79-1.21-6.27c0.29-0.26,2.05,0.39,2.63,0.44c1.33,0.1,2.73-0.1,2.73-0.69
				c0-0.44-1.12-0.38-2.19-0.73c-1.16-0.38-2.32-1.13-2.74-1.55c-1.46-1.46-2.04-6.12-2.83-6.09c-1.25,0.04-1.75,9.87,0.75,15.42
				c4.01,8.87,12.45,12.46,12.83,11.7C41.35,49.39,33.56,44.23,31.09,37.71z"/>
			<path class="st1" d="M72.56,22.83c-0.8-0.03-1.39,4.63-2.86,6.09c-0.43,0.42-1.59,1.17-2.76,1.55c-1.08,0.35-2.21,0.28-2.21,0.73
				c0,0.59,1.42,0.79,2.76,0.69c0.58-0.04,2.35-0.7,2.65-0.44c0.54,0.48-0.35,3.99-1.22,6.27c-2.49,6.52-10.34,11.68-10.05,12.24
				c0.39,0.76,8.9-2.83,12.93-11.7C74.32,32.7,73.82,22.87,72.56,22.83z"/>
			<path class="st1" d="M34.6,11.27c-0.23,0.23-0.71,0.7-0.65,0.82c0.04,0.08,0.82,0.07,0.82,0.07l1.23-0.1c0,0,1.55-0.08,2.25-0.08
				c0.51,0,0.97-0.4,1.33-0.74c1.39-1.32,4.38-4.06,10.39-4.2C50,6.4,49.96,5.76,49.94,5.12C41.23,5.47,36,9.9,34.6,11.27z"/>
			<path class="st1" d="M61.76,11.98c0.7,0,2.26,0.08,2.26,0.08l1.24,0.1c0,0,0.79,0.01,0.83-0.07c0.05-0.11-0.42-0.59-0.66-0.82
				c-1.4-1.38-6.66-5.8-15.4-6.16c-0.02,0.64-0.06,1.28-0.04,1.92c6.04,0.14,9.04,2.89,10.43,4.2
				C60.79,11.58,61.25,11.98,61.76,11.98z"/>
			<path class="st1" d="M30.94,22.5c2.53,1.31,6.77,1.38,6.96,0.49c0.12-0.56-4.22-1.92-5.12-3.07C31.76,18.59,31,15.14,31,15.14
				l-2.75,4.08C28.25,19.22,28.6,21.29,30.94,22.5z"/>
			<path class="st1" d="M62.15,22.99c0.19,0.89,4.43,0.82,6.96-0.49c2.34-1.21,2.69-3.28,2.69-3.28l-2.75-4.08
				c0,0-0.76,3.45-1.79,4.78C66.36,21.07,62.03,22.42,62.15,22.99z"/>
		</g>
	</g>
</g>
<g>
	<path class="st2" d="M53.12,42.04c-0.02,0.04-0.04,0.07-0.06,0.11c0.08-0.03,0.15-0.06,0.23-0.1
		C53.24,42.05,53.18,42.04,53.12,42.04z"/>
	<path class="st2" d="M57.11,35.67c-0.04,0.06-0.09,0.11-0.14,0.16c0.33-0.09,0.53-0.17,0.53-0.17
		C57.38,35.68,57.24,35.68,57.11,35.67z"/>
	<path class="st3" d="M50.95,28.45c0.24,0.62,0.49,1.19,0.75,1.69c0.09-1.24,0.28-2.53,0.74-2.98c0,0-0.02-0.03-0.04-0.07
		C52.05,28.03,51.44,28.36,50.95,28.45z"/>
	<path class="st3" d="M54.08,26.55c0.64,0.1,1.23,0.83,1.43,1.48c0.2,0.65-0.21,3.75-0.68,4.46c-0.47,0.72-1.07,1.14-1.55,1.16
		c-0.12,0.01-0.27-0.01-0.44-0.05c-0.05,1.27-0.45,2.24-0.45,2.24s-3.63-1.9-5.41-5.12c-0.1,0.64-0.13,1.69-0.13,1.69
		c-1.34-0.75-1.68-2.21-1.77-2.82c-0.17,0.09-0.37,0.24-0.58,0.41c0,0.01,0,0.03-0.01,0.04c-0.19,0.7-0.18,2.3-0.18,2.3
		c-0.4-0.51-0.51-1.26-0.55-1.68c-0.11,0.11-0.18,0.18-0.18,0.18s-0.35-1.49-1.3-1.64c-0.48-0.07-0.88-0.05-1.23,0.03
		c0.46,0.08,0.97,0.36,1.15,1.17c0.23,1.06-0.06,2.78-0.82,4.26c-0.54,1.06-0.77,1.35-1.12,1.62c0.71,0.23,1.51-0.08,1.82-0.26
		c0.38-0.22,1.14-0.7,1.57-0.77c0.43-0.07,1.15,0.05,1.77,0.2c-0.11-0.43-0.22-1.05-0.17-1.59c0,0,1.4,1.82,2.52,1.76
		c0,0-0.11-0.39-0.05-0.92c0,0,2.35,2.17,4.48,2.31l-1.17,0.08c-0.01,0.03-0.03,0.11-0.06,0.23c0.22,0.29,1.22,1.51,2.32,1.62
		c0.13,0.01-1.18,0.87-2.78,0.11c-0.18,0.64-0.37,1.27-0.52,1.6c-0.25,0.56-0.89,1.44-1.34,2.17c0.12,0.34,0.56,0.86,2.21,0.79
		c0.1,0-1.59,1.5-2.53,1.03c0.19,0.47,0.48,0.96,0.59,1.34c0.44,0.13,1.17,0.22,2.25,0.05c0,0-1.16,1.26-2.38,1.12
		c-0.03,0.2-0.04,0.38,0.02,0.53c0.16,0.41,0.9,1.17,1.46,1.26c0.13,0.02,0.25,0.18,0.34,0.39c0.38,0.38,1.04,0.95,1.6,0.95
		c0,0-0.81,0.29-1.42,0c0,0.04-0.01,0.07-0.02,0.1c-0.06,0.16-0.35,0.34-0.57,0.52c0.18,0.12,0.61,0.26,1.62,0.33
		c1.56,0.11,2.48-0.6,2.85-0.97c0.01-0.22,0.02-0.46,0-0.73c-0.86,0.25-2.9,0.15-1.88-0.1c1.04-0.25,1.4-0.8,1.53-1.22
		c-0.31-0.56-0.68-0.9-0.97-1.2c-0.87,0.9-2.73,0.99-2.73,0.99c1.35-0.37,2.17-2.16,2.49-3c-0.01-0.14-0.05-0.29-0.14-0.43
		c-0.33-0.56-1.12-0.27-1.27-0.61c-0.08-0.19,0.12-0.39,0.43-0.7c-0.35-0.11-0.95-0.39-1.13-1.04c0,0,1.11,0.26,2.05-0.08
		c0.02-0.04,0.04-0.07,0.06-0.11c-0.96-0.14-2.75-1.5-2.63-1.47c1.88,0.57,2.83,0.11,3.26-0.29c0.33-1.26,0.75-3.07,0.76-3.12
		c-0.75-0.53-1.22-1.11-1.22-1.11c1.27,0.36,2.86,0.01,3.67-0.22c0.05-0.05,0.09-0.11,0.14-0.16c-1.72-0.09-3.26-1.48-3.26-1.48
		c2.61,0.1,3.99-1.47,4.42-2.07c-0.01-0.45-0.05-0.91-0.11-1.32c-0.55,0.9-1.53,1.79-1.53,1.79c0.79-1.07,0.69-2.76,0.59-3.58
		c-0.32-0.26-0.61-0.39-0.61-0.39s0.09-2.02-1.85-2.46c-1.3-0.3-2.32,0.99-2.32,0.99C52.83,26.77,53.65,26.48,54.08,26.55z"/>
	<path class="st3" d="M53.75,4.99c-0.09,0-0.15,0-0.15,0s-0.08-1.27-0.92-0.9c-0.77,0.34-0.34,1.35-0.3,1.44l1.2-0.47L53.75,4.99z"
		/>
	<path class="st3" d="M55.25,12.18C55.25,12.18,55.25,12.18,55.25,12.18c-0.01,0-0.02,0.01-0.03,0.01
		C55.23,12.19,55.24,12.18,55.25,12.18z"/>
	<path class="st3" d="M52.1,8.45c0.28,0.04,0.99,0.15,1.25,0.39c0.33,0.31,0.48,0.81,0.76,1.04c0.11,0.09,0.3,0.27,0.6,0.4
		c-0.02-0.01-0.04-0.02-0.06-0.03l0.7-1.37c0,0,0.11,0.9-0.13,1.23c0,0,1.1-0.77,1.1-1.29c0-0.39,0.13,0.25-0.17,0.85
		c-0.1,0.2-0.34,0.53-0.63,0.63c-0.15,0.05-0.26,0.11-0.42,0.11c0.42,0.08,0.98,0.04,1.71-0.31c0.18-0.09,0.36-0.22,0.39-0.12
		c0.13,0.33-0.86,1.46-1.57,1.97c0.5-0.24,1.21-0.46,1.54-0.71c0.36-0.27,1.12-1.41,1.12-1.41s0.01,0.01,0.02,0.02
		c0.01-0.3,0.04-1.02-0.01-1.24c-0.06-0.27,1.79-0.31,2.2-0.11c0.27,0.12,0.59,0.46,0.76,0.82c0.13-0.4,0.13-0.81,0.05-1.06
		c-0.59-1.94-3.1-0.29-3.1-0.29s-0.11-0.27-0.37-0.65c-0.15,0.65-0.48,1.28-0.48,1.28c0.12-1.01-0.31-2-0.55-2.47
		c-0.21-0.19-0.46-0.37-0.73-0.54c0.03,0.04,0.05,0.08,0.07,0.13c0.21,0.52,0.1,1.52,0.05,1.86l0.02,0.06c0,0-0.42,1.04-1.44,0.97
		c-1.02-0.07-1.19-0.08-1.19-0.08s-0.42-0.34-0.74-0.57c-0.03-0.02-0.09-0.05-0.15-0.09c-0.01,0-0.01,0.01-0.02,0.01
		c-0.09,0-0.17-0.05-0.22-0.13c-0.23-0.11-0.47-0.21-0.47-0.21c-0.12-0.39-0.1-1.12-0.04-1.5c-0.07,0.08-0.15,0.16-0.23,0.25
		c-0.34,0.38-0.43,0.92-0.44,0.94l0.01,0C51.28,7.24,52.16,7.85,52.1,8.45z"/>
	<path class="st3" d="M47.99,9.03c0.04,0.07,0.07,0.13,0.09,0.17l0,0C48.05,9.14,48.02,9.08,47.99,9.03z"/>
	<path class="st3" d="M46.98,30.72c-0.13-0.24-0.27-0.47-0.4-0.68C46.77,30.36,46.98,30.72,46.98,30.72z"/>
	<path class="st3" d="M45.59,28.61c0.34,0.53,0.59,0.86,0.65,0.93c0.01,0,0.02,0.01,0.03,0.01C46.03,29.19,45.8,28.88,45.59,28.61z"
		/>
	<path class="st3" d="M69.29,15.7c-0.33-0.99-2.24-2.1-2.65-3.03c-0.17-0.39,0.14-1.27-0.02-1.64c-0.3-0.69-1.41-1.28-1.8-0.95
		c-0.41,0.34,0.08,1.61-0.04,2.12c-0.09,0.38-0.99,1.21-0.99,1.21c-0.12,0.02-0.27,0.04-0.43,0.07c-0.71,0.64-0.68,2.14-0.68,2.14
		c-0.67-0.54-0.85-1.4-0.9-1.94c-0.69,0.08-1.46,0.16-2.24,0.25c-0.48,0.45-1.29,1.45-1.17,2.88c0,0-0.88-1.82-0.46-2.71
		c-0.42,0.05-0.83,0.1-1.2,0.14c-0.8,0.83-0.98,2.79-0.98,2.79c-0.7-1.06-0.55-2.05-0.36-2.6c-0.28,0.05-0.64,0.13-0.99,0.21
		c-0.43,0.29-1.03,0.85-1.11,1.73c0,0-0.67-1.07-0.49-1.24c0.09-0.09,0.34-0.24,0.57-0.37c0.15-0.25,0.51-0.83,0.9-1.39
		c-0.28-0.36-0.76-0.24-0.76-0.24c0,0,0,0,0,0c-0.2,0.17-0.37,0.34-0.51,0.54c-0.42,0.61-0.99,1.85-1.82,2.5
		c-0.84,0.65-2.78,1.25-3.37,0.25c-0.31-0.52-0.35-1.52-0.06-2.12c0,0-0.56-0.52-1.07-0.95c-0.35-0.03-0.98-0.08-1.37,0.02
		c-0.57,0.13-0.79,0.87-0.79,0.87c-0.39-0.89-0.14-1.68,0.01-2.03c-0.33-0.11-0.67-0.22-0.99-0.31c-0.36,0.1-0.72,0.21-0.9,0.31
		c-0.37,0.21-1.24,1.25-1.24,1.25s-0.01-0.81,0.04-1.07c0.03-0.18,0.16-0.57,0.25-0.86c-0.33-0.06-0.66-0.15-1-0.25
		c-0.54,0.17-1.33,0.47-1.62,0.84c-0.34,0.42-0.11-0.74,0.04-1.43c-0.35-0.15-0.66-0.3-0.94-0.44c-0.63,0.19-1.23,0.89-1.07,0.62
		c0.1-0.17,0.13-0.67,0.13-1.12C37.15,9.7,37.1,9.67,37.1,9.67s-0.28-0.39-0.64-0.67c-0.31-0.25-0.71-0.39-0.79-0.6
		c-0.21-0.54,0.2-2.23-0.81-2.2c-1.67,0.06-1.12,1.98-1.12,1.98s-4.35,2.24-2.66,4.93c0.64,1.01,4.5-0.66,4.5-0.66
		s0.83,0.68,1.87,1.47c-0.01-0.46,0.04-1.13,0.37-1.71c0,0,0.21,0.73,0.44,1.3c0.14,0.35,0.21,0.85,0.24,1.19
		c0.33,0.24,0.67,0.48,0.98,0.7c0-0.88,0.12-2.51,1.03-2.85c0,0-0.01,2.42,0.28,3.66c0.04,0.02,0.08,0.04,0.12,0.06
		c0.27,0.12,0.74,0.26,1.24,0.39c-0.31-0.75-0.66-2.23,0.79-3.27c0,0,0.1,2.71,0.56,3.58c0.48,0.1,0.84,0.17,0.84,0.17
		s-1.44,1.78-1.44,3.19c0,1.32,0.23,2.59,0.57,3.73c-0.24-1.31-0.27-2.78,0.33-3.96c1.46-2.85,2.59-2.72,3.21-2.58
		c0.32,0.07,0.79,0.76,1.22,1.67c0.44-0.1,0.96-0.28,1.27-0.58c0,0-0.33,0.77-1.14,0.85c0.32,0.73,0.61,1.58,0.77,2.36
		c0.96-0.42,2.11-1.44,2.54-1.85c0.08-0.24,0.17-0.41,0.27-0.5c0.13-0.11,0.37-0.19,0.68-0.25c-0.11-0.44-0.25-1.11-0.19-1.56
		c0,0,0.67,0.79,1.51,1.42c0.39-0.02,0.8-0.04,1.2-0.05c-0.05-0.37-0.1-0.87-0.06-1.12c0,0,0.49,0.65,1.25,1.05
		c0.26-0.02,0.5-0.05,0.69-0.1c0.91-0.21,2.22-0.76,3.55-1.25c0.01-0.59,0.06-1.47,0.24-2c0,0,0.68,0.91,1.31,1.46
		c0.83-0.26,1.61-0.42,2.21-0.39c0.53,0.03,0.98,2.34,3.84,1.91C69.07,18.45,69.53,16.4,69.29,15.7z"/>
	<path class="st3" d="M50.8,28.05c0.77-0.63,1.08-1.27,1.21-1.65c-0.12-0.23-0.25-0.51-0.37-0.8c-0.49,0.36-1,0.53-1.45,0.59
		C50.38,26.82,50.59,27.45,50.8,28.05z"/>
	<path class="st3" d="M49.2,22.12c0.07,0.4,0.18,0.88,0.3,1.42c0.31-0.13,0.64-0.32,0.91-0.59c0,0-0.3,0.84-0.79,1.07
		c0.09,0.37,0.19,0.76,0.29,1.15c0.51-0.46,0.97-0.96,1.31-1.37c0-0.02,0-0.04,0-0.06c0-0.36,0.03-0.92,0.08-1.51
		C50.59,22.29,49.77,22.21,49.2,22.12z"/>
	<path class="st4" d="M51.98,7.54c0,0,0.24,0.1,0.47,0.21c-0.04-0.06-0.07-0.14-0.07-0.24c0-0.2,0.13-0.36,0.3-0.36
		c0.16,0,0.3,0.16,0.3,0.36c0,0.19-0.12,0.34-0.27,0.36c0.06,0.03,0.11,0.06,0.15,0.09c0.32,0.23,0.74,0.57,0.74,0.57
		s0.17,0.02,1.19,0.08c1.02,0.07,1.44-0.97,1.44-0.97L56.2,7.58c-0.01,0.07-0.02,0.11-0.02,0.11c0.16-0.49-1.74-2.49-2.08-2.46
		c-0.24,0.02-1.22,0.25-1.78,0.39c-0.08,0.09-0.22,0.24-0.38,0.42C51.87,6.42,51.86,7.14,51.98,7.54z M54.22,6.28
		c0.07-0.2,0.43,0.16,0.46,0.35c0.04,0.27,0,0.51,0,0.51s-0.11-0.32-0.17-0.43C54.45,6.61,54.18,6.39,54.22,6.28z M53.89,7.51
		c0.16,0,0.3,0.17,0.3,0.37s-0.13,0.37-0.3,0.37s-0.3-0.17-0.3-0.37S53.73,7.51,53.89,7.51z M52.7,6.18
		c0.13-0.15,0.63-0.26,0.58-0.05c-0.03,0.12-0.37,0.15-0.48,0.21c-0.11,0.06-0.38,0.27-0.38,0.27S52.52,6.38,52.7,6.18z"/>
	<path class="st4" d="M60.5,8.5c-0.41-0.19-2.26-0.16-2.2,0.11c0.05,0.21,0.03,0.94,0.01,1.24c0.12,0.11,0.86,0.79,1.13,0.79
		c1.07,0,1.61-0.66,1.81-1.32C61.09,8.95,60.76,8.62,60.5,8.5z"/>
	<path class="st4" d="M46.3,29.56c0.01,0.02,0.14,0.23,0.28,0.47c0.13,0.22,0.27,0.44,0.4,0.68c1.78,3.22,5.41,5.12,5.41,5.12
		s0.4-0.98,0.45-2.24c-0.53-0.13-1.19-0.55-1.19-1.63c0-0.5,0.01-1.16,0.06-1.83c-0.26-0.49-0.52-1.07-0.75-1.69
		c-0.4,0.08-0.72,0.01-0.72,0.01c0.21-0.14,0.4-0.27,0.57-0.41c-0.22-0.6-0.42-1.23-0.61-1.86c-0.86,0.12-1.52-0.11-1.52-0.11
		c0.43-0.23,0.85-0.55,1.24-0.9c-0.11-0.4-0.21-0.78-0.29-1.15c-0.06,0.03-0.11,0.05-0.17,0.06c-0.59,0.09-0.81-0.13-1.18-0.24
		c0,0,0.6-0.04,1.23-0.31c-0.12-0.54-0.22-1.02-0.3-1.42C48.78,22.06,48.49,22,48.49,22c0.2-0.02,0.41-0.09,0.64-0.19
		c-0.16-0.78-0.45-1.63-0.77-2.36c-0.24,0.02-0.52-0.01-0.85-0.14c0,0,0.33-0.03,0.73-0.12c-0.43-0.91-0.9-1.59-1.22-1.67
		c-0.62-0.14-1.75-0.27-3.21,2.58c-0.6,1.18-0.57,2.65-0.33,3.96c0.58,1.98,1.49,3.6,2.11,4.56c0.21,0.27,0.44,0.58,0.68,0.94
		C46.28,29.55,46.3,29.56,46.3,29.56z"/>
	<path class="st4" d="M55.64,11.95c-0.16,0.07-0.29,0.15-0.39,0.23C55.36,12.14,55.49,12.06,55.64,11.95z"/>
	<path class="st4" d="M47.8,16.42c0.59,1,2.53,0.41,3.37-0.25c0.84-0.65,1.4-1.89,1.82-2.5c0.13-0.2,0.31-0.37,0.51-0.54
		c0.38-0.44,1.26-0.78,1.72-0.94c0.01,0,0.02-0.01,0.03-0.01c0.1-0.08,0.24-0.15,0.39-0.23c0.71-0.51,1.69-1.64,1.57-1.97
		c-0.04-0.1-0.21,0.04-0.39,0.12c-0.73,0.34-1.29,0.39-1.71,0.31c-0.1,0-0.23-0.04-0.39-0.12c-0.29-0.13-0.49-0.31-0.6-0.4
		c-0.28-0.23-0.43-0.74-0.76-1.04c-0.26-0.24-0.97-0.35-1.25-0.39c0,0.03-0.01,0.07-0.02,0.1c-0.18,0.63-1.73,2.06-2.78,1.61
		c-0.54-0.24-0.94-0.55-1.22-0.97l0,0c0.02,0.03,0.03,0.05,0.03,0.05s0.17,1.41,0.38,1.8c0.2,0.37,1.24,1.26,1.24,1.26
		s-1.2,0.97-1.47,1.25c-0.23,0.23-0.53,0.75-0.53,0.75C47.45,14.9,47.49,15.9,47.8,16.42z M49.68,13.03
		c0.3-0.32,0.16-0.82,0.16-0.82s0.72,0.11,1.66,0.11c0.94,0,2.1-0.77,2.1-0.77c-0.7,1.16-2.66,2.97-3.94,3.2
		c-0.56,0.1-1.05-0.17-1.03-0.58C48.65,13.76,49.37,13.35,49.68,13.03z"/>
	<path class="st5" d="M37.1,10.87c-0.16,0.26,0.43-0.43,1.07-0.62c-0.43-0.22-0.76-0.4-0.93-0.5C37.23,10.2,37.2,10.7,37.1,10.87z"
		/>
	<path class="st5" d="M39.06,12.11c0.3-0.37,1.08-0.67,1.62-0.84c-0.55-0.17-1.09-0.37-1.58-0.59
		C38.95,11.38,38.72,12.53,39.06,12.11z"/>
	<path class="st5" d="M41.39,13.45c0,0,0.87-1.03,1.24-1.25c0.17-0.1,0.54-0.22,0.9-0.31c-0.54-0.15-1.05-0.27-1.38-0.3
		c-0.15-0.02-0.3-0.04-0.46-0.07c-0.1,0.29-0.22,0.68-0.25,0.86C41.38,12.65,41.39,13.45,41.39,13.45z"/>
	<path class="st5" d="M44.51,14.23c0,0,0.22-0.73,0.79-0.87c0.39-0.09,1.02-0.05,1.37-0.02c-0.25-0.21-0.5-0.4-0.66-0.5
		c-0.35-0.21-0.9-0.44-1.49-0.64C44.36,12.56,44.12,13.34,44.51,14.23z"/>
	<path class="st5" d="M37.82,12.2c-0.32,0.58-0.38,1.26-0.37,1.71c0.33,0.26,0.69,0.52,1.05,0.78c-0.03-0.35-0.1-0.85-0.24-1.19
		C38.03,12.93,37.82,12.2,37.82,12.2z"/>
	<path class="st5" d="M40.51,12.55c-0.91,0.34-1.03,1.97-1.03,2.85c0.5,0.34,0.96,0.63,1.31,0.81
		C40.5,14.97,40.51,12.55,40.51,12.55z"/>
	<path class="st5" d="M42.17,16.66c0.46,0.12,0.95,0.23,1.35,0.31c-0.46-0.87-0.56-3.58-0.56-3.58
		C41.51,14.43,41.86,15.91,42.17,16.66z"/>
	<path class="st5" d="M52.36,5.57c0.03,0,0.05-0.01,0.05-0.01l1.73-0.46l1.64,0.86l0.42,1.62c0.05-0.34,0.17-1.34-0.05-1.86
		c-0.02-0.04-0.04-0.08-0.07-0.13c-0.3-0.19-0.62-0.36-0.99-0.5c-0.27-0.1-1.02-0.11-1.34-0.11l-0.17,0.08l-1.2,0.47
		c0,0,0,0.01,0,0.01S52.38,5.55,52.36,5.57z"/>
	<path class="st5" d="M54.14,5.1l-1.73,0.46c0,0-0.02,0-0.05,0.01c-0.01,0.01-0.03,0.03-0.05,0.05c0.56-0.14,1.54-0.37,1.78-0.39
		c0.34-0.03,2.24,1.96,2.08,2.46c0,0,0.01-0.04,0.02-0.11l-0.42-1.62L54.14,5.1z"/>
	<path class="st5" d="M57.36,8.6c0,0,0.33-0.63,0.48-1.28c-0.23-0.34-0.56-0.77-1.03-1.19C57.05,6.6,57.49,7.59,57.36,8.6z"/>
	<path class="st5" d="M53.5,13.13C53.5,13.13,53.49,13.14,53.5,13.13c0,0,0.47-0.12,0.76,0.24c0.35-0.5,0.72-0.98,0.99-1.19
		c-0.01,0-0.02,0.01-0.03,0.01C54.61,12.41,53.98,12.73,53.5,13.13z"/>
	<path class="st5" d="M53.5,13.13c0.48-0.4,1.12-0.72,1.72-0.94C54.75,12.35,53.88,12.69,53.5,13.13z"/>
	<path class="st5" d="M53.26,16.39c0.08-0.87,0.71-1.44,1.15-1.73c-0.6,0.13-1.14,0.25-1.14,0.25s0.03-0.05,0.08-0.13
		c-0.24,0.13-0.5,0.28-0.59,0.37C52.57,15.32,53.26,16.39,53.26,16.39z"/>
	<path class="st5" d="M55.73,17.04c0,0,0.18-1.97,0.98-2.79c-0.4,0.05-0.77,0.1-1.08,0.15c-0.07,0.01-0.16,0.03-0.26,0.05
		C55.18,14.99,55.03,15.98,55.73,17.04z"/>
	<path class="st5" d="M58.38,16.81c-0.12-1.43,0.7-2.43,1.17-2.88c-0.55,0.06-1.11,0.12-1.64,0.18
		C57.5,14.99,58.38,16.81,58.38,16.81z"/>
	<path class="st5" d="M52.44,17.66c-0.07,0.45,0.07,1.12,0.19,1.56c0.37-0.07,0.83-0.11,1.32-0.14
		C53.12,18.45,52.44,17.66,52.44,17.66z"/>
	<path class="st5" d="M55.09,17.91c-0.05,0.25,0,0.75,0.06,1.12c0.43-0.02,0.84-0.04,1.2-0.07C55.58,18.56,55.09,17.91,55.09,17.91z
		"/>
	<path class="st5" d="M60.82,15.6c-0.17,0.52-0.22,1.41-0.24,2c0.52-0.2,1.04-0.38,1.55-0.54C61.5,16.51,60.82,15.6,60.82,15.6z"/>
	<path class="st5" d="M62.69,15.62c0,0-0.03-1.5,0.68-2.14c-0.43,0.06-0.97,0.13-1.58,0.2C61.83,14.22,62.02,15.08,62.69,15.62z"/>
	<path class="st5" d="M49.18,22c0.01,0.04,0.02,0.08,0.02,0.12c0.57,0.09,1.39,0.17,2.09,0.11c0.07-0.82,0.2-1.71,0.39-2.27
		c-0.44,0.41-1.59,1.43-2.54,1.85C49.15,21.87,49.17,21.94,49.18,22z"/>
	<path class="st5" d="M49.2,22.12c-0.01-0.04-0.02-0.08-0.02-0.12c-0.01-0.06-0.03-0.13-0.04-0.19c-0.23,0.1-0.45,0.17-0.64,0.19
		C48.49,22,48.78,22.06,49.2,22.12z"/>
	<path class="st3" d="M49.51,18.6c-0.3,0.3-0.83,0.48-1.27,0.58c0.04,0.09,0.08,0.18,0.12,0.27C49.18,19.36,49.51,18.6,49.51,18.6z"
		/>
	<path class="st4" d="M48.36,19.44c-0.04-0.09-0.08-0.18-0.12-0.27c-0.4,0.09-0.73,0.12-0.73,0.12
		C47.84,19.44,48.12,19.47,48.36,19.44z"/>
	<path class="st5" d="M50.41,22.95c-0.27,0.27-0.59,0.45-0.91,0.59c0.04,0.16,0.07,0.32,0.12,0.49
		C50.1,23.79,50.41,22.95,50.41,22.95z"/>
	<path class="st5" d="M49.44,24.08c0.06-0.01,0.12-0.03,0.17-0.06c-0.04-0.17-0.08-0.33-0.12-0.49c-0.64,0.27-1.23,0.31-1.23,0.31
		C48.64,23.96,48.85,24.17,49.44,24.08z"/>
	<path class="st5" d="M49.91,25.18c0.09,0.33,0.18,0.67,0.29,1.01c0.45-0.07,0.96-0.23,1.45-0.59c-0.23-0.56-0.41-1.2-0.43-1.79
		C50.88,24.22,50.42,24.72,49.91,25.18z"/>
	<path class="st5" d="M50.2,26.19c-0.1-0.34-0.2-0.68-0.29-1.01c-0.39,0.35-0.81,0.67-1.24,0.9C48.67,26.08,49.34,26.32,50.2,26.19z
		"/>
	<path class="st5" d="M50.8,28.05c0.05,0.14,0.1,0.27,0.15,0.4c0.49-0.1,1.1-0.42,1.45-1.37c-0.07-0.11-0.22-0.36-0.39-0.69
		C51.89,26.79,51.57,27.42,50.8,28.05z"/>
	<path class="st5" d="M50.95,28.45c-0.05-0.13-0.1-0.27-0.15-0.4c-0.17,0.14-0.36,0.28-0.57,0.41
		C50.23,28.46,50.55,28.53,50.95,28.45z"/>
	<path class="st5" d="M46.85,32.41c0,0,0.03-1.05,0.13-1.69c0,0-0.21-0.36-0.4-0.68c-0.11-0.17-0.21-0.33-0.32-0.49
		c-0.01,0-0.02-0.01-0.03-0.01c0.01,0.01,0.01,0.01,0.01,0.01s-0.79-0.11-1.03-0.03c-0.04,0.01-0.09,0.04-0.14,0.06
		C45.17,30.2,45.51,31.66,46.85,32.41z"/>
	<path class="st6" d="M46.27,29.55c0.1,0.16,0.21,0.32,0.32,0.49c-0.14-0.24-0.27-0.45-0.28-0.47
		C46.3,29.56,46.28,29.55,46.27,29.55z"/>
	<path class="st5" d="M44.49,30.04c0-0.02,0.01-0.03,0.01-0.04c-0.28,0.23-0.56,0.49-0.74,0.66c0.03,0.42,0.15,1.18,0.55,1.68
		C44.31,32.33,44.3,30.74,44.49,30.04z"/>
	<path class="st5" d="M47.71,34.69c-0.06,0.52,0.05,0.92,0.05,0.92c-1.12,0.06-2.52-1.76-2.52-1.76c-0.06,0.54,0.06,1.17,0.17,1.59
		c0.28,0.07,0.54,0.13,0.73,0.19c0.72,0.2,2.05,0.95,2.77,1.16c0.51,0.15,2.12,0.27,2.12,0.27s0,0.01-0.01,0.02L52.2,37
		C50.06,36.86,47.71,34.69,47.71,34.69z"/>
	<path class="st5" d="M53.29,38.93c-1.1-0.11-2.1-1.33-2.32-1.62c-0.09,0.36-0.27,1.05-0.46,1.73
		C52.12,39.8,53.43,38.95,53.29,38.93z"/>
	<path class="st5" d="M50.5,40.57c-0.12-0.04,1.67,1.33,2.63,1.47c0.14-0.25,0.28-0.53,0.38-0.86c0.07-0.22,0.16-0.53,0.25-0.89
		C53.32,40.68,52.37,41.14,50.5,40.57z"/>
	<path class="st5" d="M51.01,42.23c0.18,0.65,0.78,0.93,1.13,1.04c0.27-0.27,0.62-0.63,0.92-1.13
		C52.11,42.49,51.01,42.23,51.01,42.23z"/>
	<path class="st5" d="M50.87,43.6c-1.65,0.07-2.09-0.45-2.21-0.79c-0.25,0.41-0.45,0.76-0.48,0.98c-0.04,0.24,0.04,0.53,0.17,0.83
		C49.28,45.11,50.97,43.6,50.87,43.6z"/>
	<path class="st5" d="M51.18,46.02c-1.09,0.17-1.81,0.08-2.25-0.05c0.01,0.04,0.02,0.08,0.03,0.11c0.06,0.27-0.09,0.68-0.15,1.06
		C50.03,47.28,51.18,46.02,51.18,46.02z"/>
	<path class="st5" d="M50.62,48.01c0,0,1.86-0.09,2.73-0.99c-0.18-0.19-0.33-0.37-0.4-0.59c-0.12-0.35,0.22-0.88,0.17-1.43
		C52.79,45.85,51.97,47.64,50.62,48.01z"/>
	<path class="st5" d="M52.22,50.28c-0.56,0-1.22-0.57-1.6-0.95c0.13,0.3,0.21,0.71,0.17,0.95C51.41,50.56,52.22,50.28,52.22,50.28z"
		/>
	<path class="st5" d="M52.79,49.44c-1.02,0.25,1.02,0.35,1.88,0.1c-0.02-0.42-0.11-0.87-0.34-1.3c0-0.01-0.01-0.01-0.01-0.02
		C54.19,48.64,53.82,49.19,52.79,49.44z"/>
	<path class="st5" d="M51.82,51.24c-1.01-0.07-1.44-0.21-1.62-0.33c-0.15,0.12-0.27,0.24-0.27,0.34c0.02,0.76,1.21,1.21,2.72,1.29
		c1.26,0.06,2.48-0.33,2.47-1.02c0-0.16-0.41-0.39-0.46-0.57c-0.03-0.15-0.02-0.39,0-0.68C54.3,50.64,53.38,51.35,51.82,51.24z"/>
	<path class="st5" d="M56.64,32.6c0,0,0.98-0.9,1.53-1.79c-0.05-0.29-0.1-0.55-0.18-0.75c-0.17-0.46-0.48-0.8-0.76-1.03
		C57.33,29.84,57.43,31.53,56.64,32.6z"/>
	<path class="st5" d="M56.98,35.84c-0.81,0.23-2.4,0.57-3.67,0.22c0,0,0.47,0.58,1.22,1.11c0,0,0,0,0,0S55.83,37.16,56.98,35.84z"/>
	<path class="st5" d="M53.85,34.19c0,0,1.54,1.39,3.26,1.48c0.39-0.49,0.75-1.14,1.03-2.01c0.11-0.33,0.15-0.92,0.14-1.54
		C57.84,32.73,56.46,34.3,53.85,34.19z"/>
	<path class="st5" d="M55.53,10.3c0.29-0.1,0.53-0.43,0.63-0.63c0.3-0.59,0.17-1.23,0.17-0.85c0,0.51-1.1,1.29-1.1,1.29
		c0.24-0.33,0.13-1.23,0.13-1.23l-0.7,1.37c0.02,0.01,0.04,0.02,0.06,0.03c0.11,0.05,0.24,0.09,0.39,0.12
		C55.26,10.41,55.38,10.35,55.53,10.3z"/>
	<path class="st6" d="M55.1,10.41c-0.15-0.03-0.28-0.07-0.39-0.12C54.88,10.37,55,10.4,55.1,10.41z"/>
	<path class="st6" d="M52.67,7.88c0.01,0,0.02,0,0.02-0.01c-0.07-0.04-0.16-0.08-0.24-0.12C52.5,7.83,52.58,7.88,52.67,7.88z"/>
	<path class="st6" d="M52.97,7.51c0-0.2-0.13-0.36-0.3-0.36c-0.16,0-0.3,0.16-0.3,0.36c0,0.09,0.03,0.17,0.07,0.24
		c0.09,0.04,0.17,0.08,0.24,0.12C52.84,7.86,52.97,7.71,52.97,7.51z"/>
	<ellipse class="st6" cx="53.89" cy="7.89" rx="0.3" ry="0.37"/>
	<path class="st6" d="M54.68,7.15c0,0,0.04-0.25,0-0.51c-0.03-0.19-0.39-0.55-0.46-0.35c-0.04,0.11,0.23,0.33,0.29,0.43
		C54.57,6.82,54.68,7.15,54.68,7.15z"/>
	<path class="st6" d="M53.28,6.13c0.05-0.21-0.45-0.1-0.58,0.05c-0.18,0.2-0.28,0.43-0.28,0.43S52.7,6.4,52.8,6.34
		C52.91,6.28,53.25,6.24,53.28,6.13z"/>
	<path class="st7" d="M49.07,8.45l2.91-0.01c0,0,0.05,0,0.12,0.01c0.06-0.6-0.83-1.21-0.83-1.21l-0.01,0c0,0,0,0,0,0
		s-1.99-1.03-3.12-0.07c-0.69,0.59-0.36,1.46-0.16,1.85c0.03,0.06,0.06,0.11,0.1,0.16L49.07,8.45z"/>
	<path class="st7" d="M49.07,8.45l-0.98,0.74c0.28,0.42,0.68,0.74,1.22,0.97c1.04,0.46,2.6-0.98,2.78-1.61
		c0.01-0.03,0.01-0.07,0.02-0.1c-0.07-0.01-0.12-0.01-0.12-0.01L49.07,8.45z"/>
	<path class="st7" d="M49.66,14.75c1.28-0.23,3.23-2.04,3.94-3.2c0,0-1.15,0.77-2.1,0.77c-0.94,0-1.66-0.11-1.66-0.11
		s0.14,0.5-0.16,0.82c-0.3,0.32-1.03,0.74-1.05,1.14C48.6,14.58,49.1,14.85,49.66,14.75z"/>
	<path class="st8" d="M41.38,34.65c0.76-1.48,1.05-3.2,0.82-4.26c-0.18-0.82-0.68-1.1-1.15-1.17c-1.85,0.44-2.01,2.77-2.07,3.84
		c-0.11,2.16,0.54,2.98,1.27,3.22C40.6,36,40.83,35.72,41.38,34.65z"/>
	<path class="st8" d="M51.89,30.47c1.29,2.18,0.96,1.45,0.96,2.85c0,0.09,0,0.19-0.01,0.28c0.17,0.04,0.32,0.05,0.44,0.05
		c0.49-0.02,1.09-0.45,1.55-1.16c0.47-0.72,0.88-3.81,0.68-4.46c-0.2-0.65-0.8-1.38-1.43-1.48c-0.42-0.06-1.25,0.23-1.63,0.61
		c-0.45,0.45-0.65,1.74-0.74,2.98C51.77,30.25,51.83,30.37,51.89,30.47z"/>
	<path class="st8" d="M52.84,33.6c0-0.09,0.01-0.18,0.01-0.28c0-1.4,0.33-0.67-0.96-2.85c-0.06-0.1-0.12-0.22-0.18-0.33
		c-0.05,0.67-0.06,1.33-0.06,1.83C51.65,33.05,52.31,33.47,52.84,33.6z"/>
</g>
<g>
	<g>
		<g>
			<path class="st1" d="M16.52,56.71c0.09,0.19,0.23,0.93,0.23,0.93l3.02-0.05l0.16,10.39c0,0-0.23,0.4-0.33,0.54
				c-0.13,0.17-0.6,0.69-0.6,0.69l3.89-0.02c0,0-0.49-0.43-0.62-0.63c-0.08-0.11-0.22-0.58-0.22-0.58V57.61h2.9
				c0,0,0.21-0.66,0.34-0.88c0.13-0.24,0.68-0.96,0.68-0.96l-10.09,0.09C15.88,55.86,16.4,56.46,16.52,56.71z"/>
			<path class="st1" d="M33.28,55.77l-3.58,0c0,0,0.54,0.85,0.67,1.16c0.06,0.14,0.03,10.9,0.02,11.07
				c-0.04,0.46-0.68,1.21-0.68,1.21h3.49c0,0-0.52-0.81-0.57-1.16c-0.02-0.12-0.09-10.69-0.04-11.11
				C32.62,56.6,33.28,55.77,33.28,55.77z"/>
			<path class="st1" d="M84.17,69.12c0,0-4.43-5.78-4.04-6.01c0.75-0.45,2.45-1.08,2.45-3.8c0-2.92-2.22-3.34-3.4-3.44
				c-1.18-0.1-4.65-0.08-4.65-0.08s0.54,0.85,0.67,1.16c0.06,0.14,0.03,10.9,0.02,11.07c-0.04,0.46-0.68,1.21-0.68,1.21h3.49
				c0,0-0.52-0.81-0.57-1.16c0-0.02-0.02-6.08-0.02-6.08l3.55,7.19L84.17,69.12z M78.77,61.86c-1.47,0.3-1.36,0-1.36,0l-0.08-4.2
				c0,0,2.77-0.43,2.97,1.19C80.5,60.48,80.24,61.56,78.77,61.86z"/>
			<path class="st1" d="M63.19,56.9c0.06,0.14,0.03,10.9,0.02,11.07c-0.04,0.46-0.68,1.21-0.68,1.21l8.2,0.08
				c0,0,0.09-3.98-0.03-3.79c-1.18,1.99-2.4,2.3-3.18,2.34c-1.6,0.07-2.22,0.01-2.22-0.78c0,0,0.07-3.72,0.07-3.72
				s1.72-0.07,2.43-0.1c0.69-0.03,1.27,0.38,1.48,0.66c0.12,0.16,0.05-2.55-0.07-2.4c-0.58,0.71-1.51,0.58-1.51,0.58l-2.29-0.03
				c0,0-0.02-3.45-0.02-3.58c0-1.52,1.82-1.16,2.93-1.13c1.58,0.06,2.38,2.26,2.48,2.37c0.03,0.04,0.09-3.88,0.09-3.88l-8.37-0.08
				C62.52,55.74,63.06,56.6,63.19,56.9z"/>
			<path class="st1" d="M46.29,61.72l-3.75-0.05c0.25,0.12,0.69,1.26,0.69,1.26s0.21,3.54,0.01,4.24c-0.06,0.21-1.16,0.36-2.68,0.19
				c-1.43-0.16-1.64-2.33-1.47-6.69s2.94-4.02,4.08-3.44c1.14,0.57,1.98,1.68,1.98,1.68l0.12-3.08c0,0-3.27,0.14-5.69,0.14
				c-1.51,0-2.91,0.65-3.09,6.17c-0.18,5.53,2.23,6.72,3.61,6.85c0.45,0.04,6.18,0.11,6.18,0.11s-0.63-0.36-1.08-1.05
				c-0.45-0.69,0.03-4.92,0.19-5.41C45.56,62.16,46.29,61.72,46.29,61.72z"/>
			<path class="st1" d="M59.21,61.72l-3.75-0.05c0.25,0.12,0.69,1.26,0.69,1.26s0.21,3.54,0.01,4.24c-0.06,0.21-1.16,0.36-2.68,0.19
				c-1.43-0.16-1.64-2.33-1.47-6.69s2.94-4.02,4.08-3.44c1.14,0.57,1.98,1.68,1.98,1.68l0.12-3.08c0,0-3.27,0.14-5.69,0.14
				c-1.51,0-2.91,0.65-3.09,6.17c-0.18,5.53,2.23,6.72,3.61,6.85c0.45,0.04,6.18,0.11,6.18,0.11s-0.63-0.36-1.08-1.05
				c-0.45-0.69,0.03-4.92,0.19-5.41C58.48,62.16,59.21,61.72,59.21,61.72z"/>
		</g>
	</g>
</g>
<g>
	<g>
		<g>
			<path class="st1" d="M77.45,86.31c0,0-4.43-5.78-4.04-6.01c0.75-0.45,2.45-1.08,2.45-3.8c0-2.92-2.22-3.34-3.4-3.44
				c-1.18-0.1-4.65-0.08-4.65-0.08s0.54,0.85,0.67,1.16c0.06,0.14,0.03,10.9,0.02,11.07c-0.04,0.46-0.68,1.21-0.68,1.21h3.49
				c0,0-0.52-0.81-0.57-1.16c0-0.02-0.02-6.08-0.02-6.08l3.55,7.19L77.45,86.31z M72.06,79.05c-1.47,0.3-1.36,0-1.36,0l-0.08-4.2
				c0,0,2.77-0.43,2.97,1.19S73.52,78.74,72.06,79.05z"/>
			<path class="st1" d="M54.01,79.04L50.26,79c0.25,0.12,0.69,1.26,0.69,1.26s0.21,3.54,0.01,4.24c-0.06,0.21-1.16,0.36-2.68,0.19
				c-1.43-0.16-1.64-2.33-1.47-6.69s2.94-4.02,4.08-3.44c1.14,0.57,1.98,1.68,1.98,1.68l0.12-3.08c0,0-3.27,0.14-5.69,0.14
				c-1.51,0-2.91,0.65-3.09,6.17c-0.18,5.53,2.23,6.72,3.61,6.85c0.45,0.04,6.18,0.11,6.18,0.11s-0.63-0.36-1.08-1.05
				s0.03-4.92,0.19-5.41S54.01,79.04,54.01,79.04z"/>
			<path class="st1" d="M28.34,78.79c-2.47-1.07-3.14-1.59-2.72-2.97s3.24-1.76,4.03-1.5c0.79,0.26,1.94,1.42,1.94,1.42l0.06-2.64
				c0,0-3.8-0.04-5.6,0.12s-2.8,1.64-2.9,3.21s2.08,3.43,4.15,4.23s2.45,1.75,2.2,3.19c-0.25,1.44-4.14,1.38-4.93,1.13
				s-1.89-1.48-1.89-1.48l-0.09,2.84c0,0,1.25,0.11,5.44,0.11c3.37,0,3.89-1.8,4.19-3.35S30.8,79.86,28.34,78.79z"/>
			<path class="st1" d="M39.76,83.79c-0.51,0.83-2.7,0.89-3.37-0.16c-0.36-0.57-0.22-10.38-0.22-10.38l-3.1-0.03
				c0,0,0.72,0.47,0.93,1.16s0.01,8.94,0.38,9.95s1.35,2.14,3.97,2.14c2.14,0,2.95-1.3,3.25-2.15c0.26-0.73,0.29-9.43,0.43-9.78
				c0.32-0.8,1.25-1.35,1.25-1.35l-3.22-0.09C40.06,73.11,40.29,82.92,39.76,83.79z"/>
			<path class="st1" d="M61.19,73.11h-1.2l-4.58,13.12l1.95,0.03l1.32-4.03h3.26l1.46,4.03l3.01,0c0,0-0.62-0.63-0.76-0.89
				C64.13,82.48,61.19,73.11,61.19,73.11z M59.11,80.95l1.12-3.42l1.24,3.42H59.11z"/>
		</g>
	</g>
</g>
</svg>
