<?xml version="1.0" encoding="utf-8"?>
<!-- Generator: Adobe Illustrator 27.2.0, SVG Export Plug-In . SVG Version: 6.00 Build 0)  -->
<svg version="1.1" id="Layer_1" xmlns="http://www.w3.org/2000/svg" xmlns:xlink="http://www.w3.org/1999/xlink" x="0px" y="0px"
	 viewBox="0 0 100 100" style="enable-background:new 0 0 100 100;" xml:space="preserve">
<style type="text/css">
	.st0{fill:#B0ACD6;}
	.st1{fill:#F7F0F0;}
</style>
<circle class="st0" cx="50" cy="50" r="50"/>
<path class="st1" d="M58.73,16.18c-0.9,0.11,0.5-8.66-6.67-9.43s-9.25,4.11-9.44,7.32c-0.19,3.21,1.7,7.19,3.31,8.38
	c1.61,1.19,2.08,1.59,1.72,3.16c-0.36,1.56-1.05,2.84-2.43,3.16c-1.38,0.31-5.41-0.14-9.77,1.29c-4.36,1.43-8.96,4.86-9.31,7.93
	c-0.35,3.07-0.31,3.72,2.31,4.53s4.7,0.93,5.2-0.61c0.5-1.54-0.39-4.84,1.85-7s6.14-4.55,7.21-3.97c1.07,0.58,0.66,1.18-0.76,2.55
	s-2.99,2.8-3.57,5.79c-0.58,2.99-0.98,3.52,0.29,5.91c1.27,2.39,2.3,2.42,1.13,3.84c-1.17,1.42-6.83,4.14-9.94,4.37
	c-3.11,0.23-10.13,1.77-10.34,7.16s0.84,10.32,4.7,11.94s10.37,1.82,11.07-1.58c0.7-3.4-0.82-4.24-1.05-6.15
	c-0.23-1.91,0.24-5.77,1.76-6.64c1.52-0.86,2.87-1.02,4.19-2.14c1.33-1.13,3.92-6.02,5.83-6.84c1.91-0.82,4.37-2.26,6.46-0.85
	c2.09,1.41,5.28,4.47,6.99,7.03s5.56,6.3,9.37,5.36s3.34-4.19,4.94-6.08s3.33-3.69,4.63-6.71c1.3-3.02-0.42-5.33-2.02-6.6
	c-1.61-1.28-4.3-1.26-7.12,0.71c-2.81,1.97-3.73,4.66-5.48,5.03c-1.75,0.36-3.82,0.8-5.17-0.26s-2.26-1.85-3.89-2.03
	c-1.63-0.18-3.02,0.3-3.93-1.01c-0.91-1.31-2.07-3.25-1.09-6c0.98-2.75,0.65-4.71,2.53-5.51c1.88-0.8,9.38,0.37,11.59-0.77
	l-0.25,2.35l10.14,0.97l3.28-16.89l0.85-0.11l0.12-1.15l-7.52-0.89c0,0,0.44-2.37,0.04-3.5S67.33,9.4,67.11,9.3
	s-0.96,0.89-0.96,0.89s2.23,1.76,2.35,2.2c0.13,0.44,0.03,2.98,0.03,2.98l-4.59-0.27v1.23l0.93,0.6l-0.69,8.19
	c0,0-3.61,3.24-5.13,3.24s-7.94,0.42-7.06-1.67c0.88-2.1,5.71-2.95,5.48-5.47c0,0,3.01,0.17,3.36-1.56
	C61.17,17.91,59.9,16.04,58.73,16.18z"/>
<polygon class="st1" points="19.06,76.79 19.02,85.67 20.17,85.74 20.17,80.61 21.86,85.74 23.15,85.98 25.05,80.36 25.16,85.88 
	27.65,85.98 27.52,77 24.88,77 23.32,81.65 21.86,76.93 "/>
<path class="st1" d="M30.29,79.19v6.83l2.5-0.03l0.07-5.17c0,0,0.46-0.88,0.69-0.55c0.23,0.33,0.14,1.28,0.14,1.28l1.54-0.02
	c0,0,0.24-2.53-0.88-2.53s-1.67,0.82-1.67,0.82l-0.08-0.72L30.29,79.19z"/>
<path class="st1" d="M42.57,83.43c0.28,1.1-0.48,1.96-1.07,2.33c-1.26,0.78-3.79,0.03-4.3-0.39c-0.51-0.42-0.72-0.97-0.37-1.58
	c0.34-0.61,1.04-0.4,1.14,0.14c0.11,0.55,0.13,0.86,0.95,1.44c0.82,0.58,1.89-0.5,1.75-0.98s-1.23-1.2-1.91-1.43s-1.7-0.9-1.63-1.9
	c0.07-1.14,0.87-1.65,2.03-2.05c1.16-0.4,2.65,0.34,3.07,0.84c0.43,0.49,0.27,0.81,0.07,1.14c-0.2,0.33-0.99-0.06-0.99-0.06
	c-0.22-0.53,0.14-1.17-0.82-1.35s-1.72,0.11-1.62,0.72c0.08,0.46,0.94,1.2,2.16,1.57C42.04,82.18,42.52,83.22,42.57,83.43z"/>
<path class="st1" d="M72.23,83.43c0.28,1.1-0.48,1.96-1.07,2.33c-1.26,0.78-3.79,0.03-4.3-0.39c-0.51-0.42-0.72-0.97-0.37-1.58
	c0.34-0.61,1.04-0.4,1.14,0.14c0.11,0.55,0.13,0.86,0.95,1.44c0.82,0.58,1.89-0.5,1.75-0.98s-1.23-1.2-1.91-1.43s-1.7-0.9-1.63-1.9
	c0.07-1.14,0.87-1.65,2.03-2.05c1.16-0.4,2.65,0.34,3.07,0.84c0.43,0.49,0.27,0.81,0.07,1.14c-0.2,0.33-0.99-0.06-0.99-0.06
	c-0.22-0.53,0.14-1.17-0.82-1.35s-1.72,0.11-1.62,0.72c0.08,0.46,0.94,1.2,2.16,1.57C71.7,82.18,72.18,83.22,72.23,83.43z"/>
<circle class="st1" cx="45.95" cy="84.97" r="1.14"/>
<polygon class="st1" points="49.19,76.94 51.55,85.83 53.36,85.95 54.5,81.62 55.8,85.71 57.77,85.75 60.21,76.98 58.71,76.98 
	57.33,81.78 56.27,76.79 54.62,76.87 53.09,81.62 51.71,77.02 "/>
<polygon class="st1" points="61.9,79.03 61.86,85.87 64.41,85.91 64.41,79.11 "/>
<ellipse class="st1" cx="63.14" cy="77.11" rx="1.28" ry="1"/>
<path class="st1" d="M74.92,76.79l-0.08,9.12l2.26,0.04l0.22-4.68c0,0,0.5-0.93,1.1-0.89c0.46,0.02,0.28,5.51,0.28,5.51l2.18-0.05
	c0,0,0.22-5.88-0.02-6.45c-0.24-0.57-1-0.77-1.73-0.55s-2.02,1.27-2.02,1.27l0.12-3.33H74.92z"/>
<path class="st1" d="M28.76,15.15c0,0,3.24,1.27,3.87-0.32s1.98-11.07,7.12-10.99c6.46,0.1,5.93,6.96,5.93,6.96v1.82l-1.82,0.47
	c0,0-1.42-1.66-2.61-0.79c-1.19,0.87-3.13,5.57-6.72,6.8C31.06,20.29,29.08,17.28,28.76,15.15z"/>
</svg>
