<?xml version="1.0" encoding="utf-8"?>
<!-- Generator: Adobe Illustrator 27.2.0, SVG Export Plug-In . SVG Version: 6.00 Build 0)  -->
<svg version="1.1" xmlns="http://www.w3.org/2000/svg" xmlns:xlink="http://www.w3.org/1999/xlink" x="0px" y="0px"
	 viewBox="0 0 100 100" style="enable-background:new 0 0 100 100;" xml:space="preserve">
<style type="text/css">
	.st0{display:none;}
	.st1{display:inline;fill:#B0ACD6;}
	.st2{display:inline;fill:#F7F0F0;}
	.st3{fill:#49444A;}
	.st4{fill:#A13643;}
	.st5{fill:#F7F0F0;}
</style>
<g id="Layer_1" class="st0">
	<circle class="st1" cx="50" cy="50" r="50"/>
	<path class="st2" d="M58.73,16.18c-0.9,0.11,0.5-8.66-6.67-9.43s-9.25,4.11-9.44,7.32c-0.19,3.21,1.7,7.19,3.31,8.38
		c1.61,1.19,2.08,1.59,1.72,3.16c-0.36,1.56-1.05,2.84-2.43,3.16c-1.38,0.31-5.41-0.14-9.77,1.29c-4.36,1.43-8.96,4.86-9.31,7.93
		c-0.35,3.07-0.31,3.72,2.31,4.53s4.7,0.93,5.2-0.61c0.5-1.54-0.39-4.84,1.85-7s6.14-4.55,7.21-3.97c1.07,0.58,0.66,1.18-0.76,2.55
		s-2.99,2.8-3.57,5.79c-0.58,2.99-0.98,3.52,0.29,5.91c1.27,2.39,2.3,2.42,1.13,3.84c-1.17,1.42-6.83,4.14-9.94,4.37
		c-3.11,0.23-10.13,1.77-10.34,7.16s0.84,10.32,4.7,11.94s10.37,1.82,11.07-1.58c0.7-3.4-0.82-4.24-1.05-6.15
		c-0.23-1.91,0.24-5.77,1.76-6.64c1.52-0.86,2.87-1.02,4.19-2.14c1.33-1.13,3.92-6.02,5.83-6.84c1.91-0.82,4.37-2.26,6.46-0.85
		c2.09,1.41,5.28,4.47,6.99,7.03s5.56,6.3,9.37,5.36s3.34-4.19,4.94-6.08s3.33-3.69,4.63-6.71c1.3-3.02-0.42-5.33-2.02-6.6
		c-1.61-1.28-4.3-1.26-7.12,0.71c-2.81,1.97-3.73,4.66-5.48,5.03c-1.75,0.36-3.82,0.8-5.17-0.26s-2.26-1.85-3.89-2.03
		c-1.63-0.18-3.02,0.3-3.93-1.01c-0.91-1.31-2.07-3.25-1.09-6c0.98-2.75,0.65-4.71,2.53-5.51c1.88-0.8,9.38,0.37,11.59-0.77
		l-0.25,2.35l10.14,0.97l3.28-16.89l0.85-0.11l0.12-1.15l-7.52-0.89c0,0,0.44-2.37,0.04-3.5S67.33,9.4,67.11,9.3
		s-0.96,0.89-0.96,0.89s2.23,1.76,2.35,2.2c0.13,0.44,0.03,2.98,0.03,2.98l-4.59-0.27v1.23l0.93,0.6l-0.69,8.19
		c0,0-3.61,3.24-5.13,3.24s-7.94,0.42-7.06-1.67c0.88-2.1,5.71-2.95,5.48-5.47c0,0,3.01,0.17,3.36-1.56
		C61.17,17.91,59.9,16.04,58.73,16.18z"/>
	<polygon class="st2" points="19.06,76.79 19.02,85.67 20.17,85.74 20.17,80.61 21.86,85.74 23.15,85.98 25.05,80.36 25.16,85.88 
		27.65,85.98 27.52,77 24.88,77 23.32,81.65 21.86,76.93 	"/>
	<path class="st2" d="M30.29,79.19v6.83l2.5-0.03l0.07-5.17c0,0,0.46-0.88,0.69-0.55c0.23,0.33,0.14,1.28,0.14,1.28l1.54-0.02
		c0,0,0.24-2.53-0.88-2.53s-1.67,0.82-1.67,0.82l-0.08-0.72L30.29,79.19z"/>
	<path class="st2" d="M42.57,83.43c0.28,1.1-0.48,1.96-1.07,2.33c-1.26,0.78-3.79,0.03-4.3-0.39c-0.51-0.42-0.72-0.97-0.37-1.58
		c0.34-0.61,1.04-0.4,1.14,0.14c0.11,0.55,0.13,0.86,0.95,1.44c0.82,0.58,1.89-0.5,1.75-0.98s-1.23-1.2-1.91-1.43s-1.7-0.9-1.63-1.9
		c0.07-1.14,0.87-1.65,2.03-2.05c1.16-0.4,2.65,0.34,3.07,0.84c0.43,0.49,0.27,0.81,0.07,1.14c-0.2,0.33-0.99-0.06-0.99-0.06
		c-0.22-0.53,0.14-1.17-0.82-1.35s-1.72,0.11-1.62,0.72c0.08,0.46,0.94,1.2,2.16,1.57C42.04,82.18,42.52,83.22,42.57,83.43z"/>
	<path class="st2" d="M72.23,83.43c0.28,1.1-0.48,1.96-1.07,2.33c-1.26,0.78-3.79,0.03-4.3-0.39c-0.51-0.42-0.72-0.97-0.37-1.58
		c0.34-0.61,1.04-0.4,1.14,0.14c0.11,0.55,0.13,0.86,0.95,1.44c0.82,0.58,1.89-0.5,1.75-0.98s-1.23-1.2-1.91-1.43s-1.7-0.9-1.63-1.9
		c0.07-1.14,0.87-1.65,2.03-2.05c1.16-0.4,2.65,0.34,3.07,0.84c0.43,0.49,0.27,0.81,0.07,1.14c-0.2,0.33-0.99-0.06-0.99-0.06
		c-0.22-0.53,0.14-1.17-0.82-1.35s-1.72,0.11-1.62,0.72c0.08,0.46,0.94,1.2,2.16,1.57C71.7,82.18,72.18,83.22,72.23,83.43z"/>
	<circle class="st2" cx="45.95" cy="84.97" r="1.14"/>
	<polygon class="st2" points="49.19,76.94 51.55,85.83 53.36,85.95 54.5,81.62 55.8,85.71 57.77,85.75 60.21,76.98 58.71,76.98 
		57.33,81.78 56.27,76.79 54.62,76.87 53.09,81.62 51.71,77.02 	"/>
	<polygon class="st2" points="61.9,79.03 61.86,85.87 64.41,85.91 64.41,79.11 	"/>
	<ellipse class="st2" cx="63.14" cy="77.11" rx="1.28" ry="1"/>
	<path class="st2" d="M74.92,76.79l-0.08,9.12l2.26,0.04l0.22-4.68c0,0,0.5-0.93,1.1-0.89c0.46,0.02,0.28,5.51,0.28,5.51l2.18-0.05
		c0,0,0.22-5.88-0.02-6.45c-0.24-0.57-1-0.77-1.73-0.55s-2.02,1.27-2.02,1.27l0.12-3.33H74.92z"/>
	<path class="st2" d="M28.76,15.15c0,0,3.24,1.27,3.87-0.32s1.98-11.07,7.12-10.99c6.46,0.1,5.93,6.96,5.93,6.96v1.82l-1.82,0.47
		c0,0-1.42-1.66-2.61-0.79c-1.19,0.87-3.13,5.57-6.72,6.8C31.06,20.29,29.08,17.28,28.76,15.15z"/>
</g>
<g id="Layer_2">
	<g>
		<path class="st3" d="M17.98,76.26c0,0-0.75-1.75-1.21-3.91c-0.37-1.72,0-3.16,0-3.16s0.34,3.35,3.56,6.52
			c0.4,0.4,0.92,0.78,0.92,0.78l-1.01-3.74c0,0,1.67,2.82,3.85,4.56c3.63,2.9,10.25,6.05,15.61,7.29c7.56,1.75,22.1,3.74,33.44-4.91
			s12.85-21.44,9.78-33.17c-3.07-11.73-14.7-20.89-28.2-20.89s-23.67,6.04-30.68,13.05c-0.83,0.83-2.54,2.95-1.49,4.42
			c0.91,1.28,3.64,1.46,3.64,1.46s-2.03,1.07-4.27,1.44c-2.14,0.35-5.11,0.06-5.11,0.06s1.39-0.93,1.76-1.24
			c0.34-0.29,1.08-1.43,1.08-1.43s-0.89-0.18-1.16-0.3c-0.38-0.17-1.38-0.9-1.38-0.9s1.79-0.63,3.07-1.78
			c1.28-1.15,2.06-2.81,1.44-3.48c-0.59-0.63-2.27,0.52-3.31,1.37c-0.52,0.42-1.53,2.37-1.53,2.37s-2.3,0.48-3.11,0.76
			c-0.39,0.13-1.15,0.45-1.88,0.77v1.46l1.07,0.43l-1.07,0.25v1.78c0.79,0.11,1.46,0.16,1.52,0.29c0,0-0.58,0.16-1.52,0.26v21.35
			c1.13,2.11,2.98,5.51,3.74,6.61C16.41,75.96,17.98,76.26,17.98,76.26z"/>
		<g>
			<g>
				<path class="st4" d="M91.59,33.77c-2.79-5.2-6.14-9.41-9.1-12.1c-2.97-2.69-5.95-4.77-8.9-6.35c-8.9-4.8-17.48-5.14-24.45-4.71
					c-1.92,0.12-11.03,2.23-11.03,2.23s6.52-2.39,8.81-2.8c2.29-0.41,6.65-0.4,6.65-0.4c-1.33-0.19-7.2-0.48-9.59-0.03
					s-5.87,1.43-5.87,1.43l1.76-1.7c-1.77,0-9.52,4.77-9.52,4.77c1.1-2.04,4.82-5.33,4.6-5.28s-3.79,2.16-6.01,4.06
					c-0.79,0.67-1.83,1.69-2.85,2.71c-1.85,1.87-3.61,3.78-3.61,3.78c0.51-1.17,0.91-2.2,1.22-3.18c0.8-2.45,1.08-4.49,1.42-7.15
					C25.44,6.47,24.36,0,24.36,0s-0.05,7.33-1.29,11.3c-0.72,2.32-1.68,4.53-2.54,6.32c-1.17,2.42-2.17,4.05-2.17,4.05
					c0.15-0.56,0.38-1.73,0.57-3.04c0.2-1.42,0.35-3,0.3-4.16c-0.16-3.41-1.29-5.79-1.29-5.79c0.55,2.7-0.54,8.05-1.9,12.55
					c-1,3.31-2.16,6.16-2.92,7.17c-0.38,0.5-0.76,0.92-1.12,1.31c-1.39,1.46-2.55,2.3-2.4,3.92c0.19,2.05,1.07,3.68-0.29,6.09
					c-1.36,2.42-4.41,3.76-6.38,5.42c0,0,3.28,1.14,4.56,1.39c1.69,0.33,3.24,0.27,4.31,0.15v-0.56v-1.78v-0.68v-1.46
					c0.73-0.31,1.49-0.64,1.88-0.77c0.81-0.28,3.11-0.76,3.11-0.76s1.01-1.95,1.53-2.37c1.04-0.85,2.72-2,3.31-1.37
					c0.62,0.67-0.16,2.33-1.44,3.48c-1.28,1.15-3.07,1.78-3.07,1.78s1,0.73,1.38,0.9c0.27,0.12,1.16,0.3,1.16,0.3
					s-0.74,1.14-1.08,1.43c-0.37,0.31-1.76,1.24-1.76,1.24s2.97,0.29,5.11-0.06c2.25-0.37,4.27-1.44,4.27-1.44s-2.74-0.18-3.64-1.46
					c-1.05-1.48,0.66-3.59,1.49-4.42c7.02-7.01,17.18-13.05,30.68-13.05s25.13,9.16,28.2,20.89c3.07,11.73,1.56,24.51-9.78,33.17
					c-11.34,8.66-25.88,6.66-33.44,4.91c-5.36-1.24-11.98-4.39-15.61-7.29c-2.18-1.74-3.85-4.56-3.85-4.56l1.01,3.74
					c0,0-0.52-0.39-0.92-0.78c-3.22-3.17-3.56-6.52-3.56-6.52s-0.37,1.44,0,3.16c0.46,2.15,1.21,3.91,1.21,3.91s-1.56-0.3-2.45-1.6
					c-0.75-1.1-2.6-4.5-3.74-6.61c-0.55-1.03-0.94-1.76-0.94-1.76s0.38,1.23,0.94,2.94c1.05,3.22,2.73,8.14,3.63,9.57
					c4.56,7.24,8.42,10.1,8.42,10.1s-6.1-3.77-10.99-9.84c-0.33-0.41-0.65-0.83-0.97-1.27C7.48,71.8,4.31,63.97,4.61,64.92
					c0.66,2.03,0.35,12.32,11.12,22.92c12.49,12.3,44.78,16.9,60.2,6.08c0.56-0.39,1.11-0.79,1.65-1.19
					c6.22-4.62,10.73-9.54,13.89-14.56C101.42,62.35,97.9,45.52,91.59,33.77z M16.6,31.73c-0.6,1-3.01,1.58-3.01,1.58l2.72-5.15
					C16.31,28.16,17.04,30.99,16.6,31.73z"/>
			</g>
		</g>
	</g>
	<g>
		<g>
			<g>
				<path class="st5" d="M26.76,30.35h1.19c-0.02,0.1-0.03,0.2-0.03,0.3v11.97c0,1.03,0.84,1.87,1.87,1.87h0.72
					c1.03,0,1.87-0.84,1.87-1.87V30.65c0-0.1-0.01-0.2-0.03-0.3h1.02c0.72,0,1.31-0.59,1.31-1.31v-0.51c0-0.72-0.59-1.31-1.31-1.31
					h-6.6c-0.72,0-1.31,0.59-1.31,1.31v0.51C25.45,29.76,26.03,30.35,26.76,30.35z"/>
				<path class="st5" d="M38.68,44.52c0.17,0.07,0.35,0.11,0.55,0.11h4.05c0.81,0,1.46-0.65,1.46-1.46V42.6
					c0-0.81-0.65-1.46-1.46-1.46h-3.49v-3.95h3.55c0.77,0,1.4-0.63,1.4-1.4v-0.54c0-0.77-0.63-1.4-1.4-1.4h-3.55v-3.5h3.58
					c0.76,0,1.37-0.61,1.37-1.37v-0.53c0-0.76-0.61-1.37-1.37-1.37h-4.41c-0.14,0-0.28,0.03-0.41,0.07
					c-0.14-0.04-0.29-0.07-0.45-0.07h-0.66c-0.93,0-1.69,0.76-1.69,1.69v14.17c0,0.93,0.76,1.69,1.69,1.69h0.66
					C38.31,44.62,38.5,44.58,38.68,44.52z"/>
				<path class="st5" d="M58.11,42.77l-2.64-14.55c-0.09-0.5-0.46-0.86-0.92-1c-0.19-0.09-0.41-0.15-0.63-0.15H50.1
					c-0.79,0-1.43,0.63-1.45,1.41L45.9,42.74c-0.13,0.7,0.33,1.37,1.04,1.5l1.19,0.22c0.71,0.13,1.39-0.33,1.52-1.02l0.54-2.8
					c0.04,0,0.08,0.01,0.12,0.01h3.53l0.51,2.79c0.13,0.7,0.8,1.16,1.51,1.04l1.19-0.21C57.77,44.14,58.24,43.47,58.11,42.77z
					 M50.87,37.18l1.21-6.28l1.14,6.28H50.87z"/>
				<path class="st5" d="M36.25,46.88l-1.5-0.7c-0.56-0.26-1.22-0.02-1.49,0.53l-3.21,6.7v-4.92c0-0.98-0.8-1.78-1.78-1.78h-0.69
					c-0.98,0-1.78,0.8-1.78,1.78v13.86c0,0.98,0.8,1.78,1.78,1.78h0.69c0.98,0,1.78-0.8,1.78-1.78v-6.33l0.45,0.21l2.58,7.02
					c0.21,0.57,0.85,0.87,1.43,0.66l1.63-0.58c0.58-0.21,0.88-0.84,0.67-1.41l-2.83-7.72l2.81-5.87
					C37.05,47.79,36.81,47.14,36.25,46.88z"/>
				<path class="st5" d="M54.44,46.53l-1.26-0.15c-0.7-0.08-1.33,0.4-1.41,1.09l-1.42,11.41l-1.51-8.32l0.54-2.81
					c0.1-0.54-0.25-1.05-0.8-1.15l-0.74-0.14c-0.14-0.03-0.28-0.02-0.41,0.01c-0.12-0.02-0.24-0.03-0.36-0.01l-0.96,0.17
					c-0.54,0.1-0.91,0.61-0.81,1.14l0.61,3.38l-1.75,9.07l-1.72-12.75c-0.09-0.68-0.73-1.17-1.42-1.07l-1.26,0.16
					c-0.69,0.09-1.18,0.72-1.09,1.4l2.01,14.93c0.05,0.38,0.28,0.68,0.58,0.87c0.24,0.23,0.56,0.37,0.92,0.37h2.49
					c0.03,0,0.06-0.02,0.1-0.02l0.41,0.08c0.54,0.1,1.07-0.25,1.17-0.79l0.92-4.77l0.87,4.82c0.1,0.54,0.62,0.89,1.16,0.8l0.69-0.12
					h2.36c0.7,0,1.26-0.55,1.31-1.24c0-0.01,0-0.01,0.01-0.02l0-0.03c0-0.01,0.01-0.03,0.01-0.04v-0.02l1.85-14.86
					C55.63,47.24,55.14,46.62,54.44,46.53z"/>
				<path class="st5" d="M62.92,46.08h-1.81c-2.57,0-4.65,2.08-4.65,4.65v8.75c0,2.57,2.08,4.65,4.65,4.65h1.81
					c2.57,0,4.65-2.08,4.65-4.65v-8.75C67.57,48.16,65.49,46.08,62.92,46.08z M63.47,59.43c0,0.67-0.54,1.21-1.21,1.21h-0.47
					c-0.67,0-1.21-0.54-1.21-1.21v-8.72c0-0.67,0.54-1.21,1.21-1.21h0.47c0.67,0,1.21,0.54,1.21,1.21V59.43z"/>
				<path class="st5" d="M44.53,65.67h-1.81c-2.57,0-4.65,2.08-4.65,4.65v8.75c0,2.57,2.08,4.65,4.65,4.65h1.81
					c2.57,0,4.65-2.08,4.65-4.65v-8.75C49.18,67.75,47.09,65.67,44.53,65.67z M45.07,79.02c0,0.67-0.54,1.21-1.21,1.21h-0.47
					c-0.67,0-1.21-0.54-1.21-1.21v-8.72c0-0.67,0.54-1.21,1.21-1.21h0.47c0.67,0,1.21,0.54,1.21,1.21V79.02z"/>
				<path class="st5" d="M78.81,46.57h-0.64c-0.92,0-1.66,0.74-1.66,1.66v8.08l-3.95-8.98c-0.18-0.42-0.61-0.67-1.04-0.66
					c-0.18-0.06-0.36-0.1-0.56-0.1h-0.64c-0.92,0-1.66,0.74-1.66,1.66v14.18c0,0.92,0.74,1.66,1.66,1.66h0.64
					c0.92,0,1.66-0.74,1.66-1.66v-7.94l3.88,8.84c0.19,0.43,0.63,0.67,1.08,0.65c0.18,0.07,0.38,0.11,0.58,0.11h0.64
					c0.92,0,1.66-0.74,1.66-1.66V48.23C80.47,47.31,79.72,46.57,78.81,46.57z"/>
				<path class="st5" d="M32.51,66.03h-4.08h-1.64c-0.74,0-1.35,0.59-1.35,1.33V82.4c0,0.73,0.6,1.33,1.35,1.33h1.64h4.08
					c2.42,0,4.39-1.93,4.39-4.32v-9.06C36.89,67.96,34.93,66.03,32.51,66.03z M32.24,77.41c0,1.45-0.42,2.62-0.94,2.62h-0.88h-0.35
					c-0.16,0-0.29-0.36-0.29-0.8V70.1c0-0.44,0.13-0.8,0.29-0.8h0.35h0.88c0.52,0,0.94,1.17,0.94,2.62V77.41z"/>
			</g>
		</g>
	</g>
	<g>
		<g>
			<g>
				<path class="st5" d="M26.76,30.35h1.19c-0.02,0.1-0.03,0.2-0.03,0.3v11.97c0,1.03,0.84,1.87,1.87,1.87h0.72
					c1.03,0,1.87-0.84,1.87-1.87V30.65c0-0.1-0.01-0.2-0.03-0.3h1.02c0.72,0,1.31-0.59,1.31-1.31v-0.51c0-0.72-0.59-1.31-1.31-1.31
					h-6.6c-0.72,0-1.31,0.59-1.31,1.31v0.51C25.45,29.76,26.03,30.35,26.76,30.35z"/>
				<path class="st5" d="M38.68,44.52c0.17,0.07,0.35,0.11,0.55,0.11h4.05c0.81,0,1.46-0.65,1.46-1.46V42.6
					c0-0.81-0.65-1.46-1.46-1.46h-3.49v-3.95h3.55c0.77,0,1.4-0.63,1.4-1.4v-0.54c0-0.77-0.63-1.4-1.4-1.4h-3.55v-3.5h3.58
					c0.76,0,1.37-0.61,1.37-1.37v-0.53c0-0.76-0.61-1.37-1.37-1.37h-4.41c-0.14,0-0.28,0.03-0.41,0.07
					c-0.14-0.04-0.29-0.07-0.45-0.07h-0.66c-0.93,0-1.69,0.76-1.69,1.69v14.17c0,0.93,0.76,1.69,1.69,1.69h0.66
					C38.31,44.62,38.5,44.58,38.68,44.52z"/>
				<path class="st5" d="M58.11,42.77l-2.64-14.55c-0.09-0.5-0.46-0.86-0.92-1c-0.19-0.09-0.41-0.15-0.63-0.15H50.1
					c-0.79,0-1.43,0.63-1.45,1.41L45.9,42.74c-0.13,0.7,0.33,1.37,1.04,1.5l1.19,0.22c0.71,0.13,1.39-0.33,1.52-1.02l0.54-2.8
					c0.04,0,0.08,0.01,0.12,0.01h3.53l0.51,2.79c0.13,0.7,0.8,1.16,1.51,1.04l1.19-0.21C57.77,44.14,58.24,43.47,58.11,42.77z
					 M50.87,37.18l1.21-6.28l1.14,6.28H50.87z"/>
				<path class="st5" d="M36.25,46.88l-1.5-0.7c-0.56-0.26-1.22-0.02-1.49,0.53l-3.21,6.7v-4.92c0-0.98-0.8-1.78-1.78-1.78h-0.69
					c-0.98,0-1.78,0.8-1.78,1.78v13.86c0,0.98,0.8,1.78,1.78,1.78h0.69c0.98,0,1.78-0.8,1.78-1.78v-6.33l0.45,0.21l2.58,7.02
					c0.21,0.57,0.85,0.87,1.43,0.66l1.63-0.58c0.58-0.21,0.88-0.84,0.67-1.41l-2.83-7.72l2.81-5.87
					C37.05,47.79,36.81,47.14,36.25,46.88z"/>
				<path class="st5" d="M54.44,46.53l-1.26-0.15c-0.7-0.08-1.33,0.4-1.41,1.09l-1.42,11.41l-1.51-8.32l0.54-2.81
					c0.1-0.54-0.25-1.05-0.8-1.15l-0.74-0.14c-0.14-0.03-0.28-0.02-0.41,0.01c-0.12-0.02-0.24-0.03-0.36-0.01l-0.96,0.17
					c-0.54,0.1-0.91,0.61-0.81,1.14l0.61,3.38l-1.75,9.07l-1.72-12.75c-0.09-0.68-0.73-1.17-1.42-1.07l-1.26,0.16
					c-0.69,0.09-1.18,0.72-1.09,1.4l2.01,14.93c0.05,0.38,0.28,0.68,0.58,0.87c0.24,0.23,0.56,0.37,0.92,0.37h2.49
					c0.03,0,0.06-0.02,0.1-0.02l0.41,0.08c0.54,0.1,1.07-0.25,1.17-0.79l0.92-4.77l0.87,4.82c0.1,0.54,0.62,0.89,1.16,0.8l0.69-0.12
					h2.36c0.7,0,1.26-0.55,1.31-1.24c0-0.01,0-0.01,0.01-0.02l0-0.03c0-0.01,0.01-0.03,0.01-0.04v-0.02l1.85-14.86
					C55.63,47.24,55.14,46.62,54.44,46.53z"/>
				<path class="st5" d="M62.92,46.08h-1.81c-2.57,0-4.65,2.08-4.65,4.65v8.75c0,2.57,2.08,4.65,4.65,4.65h1.81
					c2.57,0,4.65-2.08,4.65-4.65v-8.75C67.57,48.16,65.49,46.08,62.92,46.08z M63.47,59.43c0,0.67-0.54,1.21-1.21,1.21h-0.47
					c-0.67,0-1.21-0.54-1.21-1.21v-8.72c0-0.67,0.54-1.21,1.21-1.21h0.47c0.67,0,1.21,0.54,1.21,1.21V59.43z"/>
				<path class="st5" d="M44.53,65.67h-1.81c-2.57,0-4.65,2.08-4.65,4.65v8.75c0,2.57,2.08,4.65,4.65,4.65h1.81
					c2.57,0,4.65-2.08,4.65-4.65v-8.75C49.18,67.75,47.09,65.67,44.53,65.67z M45.07,79.02c0,0.67-0.54,1.21-1.21,1.21h-0.47
					c-0.67,0-1.21-0.54-1.21-1.21v-8.72c0-0.67,0.54-1.21,1.21-1.21h0.47c0.67,0,1.21,0.54,1.21,1.21V79.02z"/>
				<path class="st5" d="M78.81,46.57h-0.64c-0.92,0-1.66,0.74-1.66,1.66v8.08l-3.95-8.98c-0.18-0.42-0.61-0.67-1.04-0.66
					c-0.18-0.06-0.36-0.1-0.56-0.1h-0.64c-0.92,0-1.66,0.74-1.66,1.66v14.18c0,0.92,0.74,1.66,1.66,1.66h0.64
					c0.92,0,1.66-0.74,1.66-1.66v-7.94l3.88,8.84c0.19,0.43,0.63,0.67,1.08,0.65c0.18,0.07,0.38,0.11,0.58,0.11h0.64
					c0.92,0,1.66-0.74,1.66-1.66V48.23C80.47,47.31,79.72,46.57,78.81,46.57z"/>
				<path class="st5" d="M32.51,66.03h-4.08h-1.64c-0.74,0-1.35,0.59-1.35,1.33V82.4c0,0.73,0.6,1.33,1.35,1.33h1.64h4.08
					c2.42,0,4.39-1.93,4.39-4.32v-9.06C36.89,67.96,34.93,66.03,32.51,66.03z M32.24,77.41c0,1.45-0.42,2.62-0.94,2.62h-0.88h-0.35
					c-0.16,0-0.29-0.36-0.29-0.8V70.1c0-0.44,0.13-0.8,0.29-0.8h0.35h0.88c0.52,0,0.94,1.17,0.94,2.62V77.41z"/>
			</g>
		</g>
	</g>
</g>
</svg>
